<svg id="Layer_1" data-name="Layer 1" xmlns="http://www.w3.org/2000/svg" viewBox="0 0 192.56 154.21"><defs><style>.cls-1,.cls-2,.cls-3,.cls-4{fill:none;}.cls-1,.cls-2,.cls-3,.cls-5{stroke:#173357;}.cls-1,.cls-2,.cls-5{stroke-miterlimit:10;}.cls-1{stroke-width:4px;}.cls-2,.cls-3,.cls-4{stroke-width:3px;}.cls-3,.cls-4{stroke-linecap:round;stroke-linejoin:round;}.cls-4{stroke:#be1e2d;}.cls-5{fill:#173357;stroke-width:0.5px;}</style></defs><title>Untitled-3</title><path class="cls-1" d="M470.82,308.93a1.22,1.22,0,0,1-1.43,1.72l-15.3-4.5h0a44.28,44.28,0,1,1,10.05-10.31Z" transform="translate(-331.38 -224.09)"/><circle class="cls-1" cx="96.27" cy="50.6" r="21.44"/><circle class="cls-2" cx="96.27" cy="50.6" r="16.08"/><polyline class="cls-3" points="96.27 41.72 96.27 52.6 103.75 49.87"/><path class="cls-2" d="M419.66,244.91a29.15,29.15,0,0,0-12,6.48s-.83,4.24,3.16,3.71a24.33,24.33,0,0,1,10-5.43C423.83,246.39,419.66,244.91,419.66,244.91Z" transform="translate(-331.38 -224.09)"/><path class="cls-4" d="M403.84,262.28" transform="translate(-331.38 -224.09)"/><path class="cls-2" d="M436,245.29a29.19,29.19,0,0,1,12.09,6.38s.86,4.24-3.13,3.74a24.26,24.26,0,0,0-10.05-5.35C431.81,246.8,436,245.29,436,245.29Z" transform="translate(-331.38 -224.09)"/><path class="cls-5" d="M339,346h6.44v.76H339.8v4h5.27v.76H339.8v5.1H339Z" transform="translate(-331.38 -224.09)"/><path class="cls-5" d="M351.94,355.2a9.12,9.12,0,0,0,.11,1.44h-.73a5.18,5.18,0,0,1-.13-1.17,2.51,2.51,0,0,1-2.49,1.35,2.25,2.25,0,0,1-2.52-2.27c0-1.67,1.29-2.43,3.56-2.43h1.45v-.78c0-.76-.23-1.77-2-1.77-1.54,0-1.76.8-1.93,1.42h-.76c.09-.83.61-2.12,2.7-2.12,1.73,0,2.7.73,2.7,2.4Zm-.74-2.43h-1.49c-1.68,0-2.73.44-2.73,1.74a1.58,1.58,0,0,0,1.75,1.61c2.17,0,2.47-1.44,2.47-3.08Z" transform="translate(-331.38 -224.09)"/><path class="cls-5" d="M354.37,354.55a2,2,0,0,0,2.16,1.57c1.35,0,1.9-.62,1.9-1.47s-.37-1.29-2.07-1.7c-2-.47-2.44-1.06-2.44-2.06s.79-2,2.5-2a2.42,2.42,0,0,1,2.66,2.12h-.76a1.8,1.8,0,0,0-1.93-1.42c-1.32,0-1.7.65-1.7,1.26s.37,1,1.87,1.41c2.14.51,2.67,1.21,2.67,2.35,0,1.38-1.12,2.23-2.72,2.23a2.63,2.63,0,0,1-2.91-2.27Z" transform="translate(-331.38 -224.09)"/><path class="cls-5" d="M359.93,349.05h1.41v-2.37h.76v2.37h1.81v.71H362.1v4.94c0,.85.18,1.33.91,1.33a2.7,2.7,0,0,0,.79-.09v.67a2.58,2.58,0,0,1-.94.14c-1,0-1.52-.49-1.52-1.7v-5.29h-1.41Z" transform="translate(-331.38 -224.09)"/><path class="cls-5" d="M369.4,356.64V345.45h.76v11.19Z" transform="translate(-331.38 -224.09)"/><path class="cls-5" d="M378.8,352.83c0,2.11-1.17,4-3.43,4-2.05,0-3.33-1.68-3.33-4s1.2-4,3.4-4C377.46,348.87,378.8,350.45,378.8,352.83Zm-5.95,0c0,1.81,1,3.27,2.58,3.27s2.56-1.35,2.56-3.27-.91-3.26-2.59-3.26S372.85,351,372.85,352.84Z" transform="translate(-331.38 -224.09)"/><path class="cls-5" d="M385.89,355.2a9.49,9.49,0,0,0,.1,1.44h-.73a5.18,5.18,0,0,1-.13-1.17,2.51,2.51,0,0,1-2.49,1.35,2.26,2.26,0,0,1-2.52-2.27c0-1.67,1.29-2.43,3.56-2.43h1.45v-.78c0-.76-.23-1.77-2-1.77-1.54,0-1.76.8-1.93,1.42h-.76c.09-.83.61-2.12,2.7-2.12,1.73,0,2.71.73,2.71,2.4Zm-.75-2.43h-1.49c-1.68,0-2.73.44-2.73,1.74a1.58,1.58,0,0,0,1.75,1.61c2.17,0,2.47-1.44,2.47-3.08Z" transform="translate(-331.38 -224.09)"/><path class="cls-5" d="M394.25,345.45v9c0,.73,0,1.43,0,2.19h-.72a11.11,11.11,0,0,1-.05-1.27,2.49,2.49,0,0,1-2.55,1.45c-2,0-3.16-1.61-3.16-3.88s1.29-4.07,3.36-4.07c1.51,0,2.12.65,2.35,1.14v-4.56Zm-5.66,7.46c0,2.08,1.07,3.2,2.38,3.2,2,0,2.55-1.38,2.55-3.45s-.47-3.08-2.41-3.08C389.6,349.58,388.59,350.78,388.59,352.91Z" transform="translate(-331.38 -224.09)"/><path class="cls-5" d="M399.54,349.05H401v-2.37h.76v2.37h1.8v.71h-1.8v4.94c0,.85.18,1.33.91,1.33a2.78,2.78,0,0,0,.79-.09v.67a2.61,2.61,0,0,1-.94.14c-1,0-1.52-.49-1.52-1.7v-5.29h-1.42Z" transform="translate(-331.38 -224.09)"/><path class="cls-5" d="M405.07,345.45h.76v1.47h-.76Zm0,3.6h.76v7.59h-.76Z" transform="translate(-331.38 -224.09)"/><path class="cls-5" d="M408.32,351c0-.65,0-1.37,0-2h.75c0,.26,0,.91,0,1.35a2.37,2.37,0,0,1,2.27-1.53,2.16,2.16,0,0,1,2.21,1.5,2.58,2.58,0,0,1,2.47-1.5c1.17,0,2.39.67,2.39,2.78v5h-.76v-4.9c0-1-.37-2.13-1.78-2.13s-2.14,1.18-2.14,2.66v4.37H413v-4.89c0-1.11-.34-2.14-1.74-2.14s-2.18,1.31-2.18,2.86v4.17h-.76Z" transform="translate(-331.38 -224.09)"/><path class="cls-5" d="M421.07,352.94c0,1.95,1,3.17,2.46,3.17a2.13,2.13,0,0,0,2.18-1.43h.78a2.91,2.91,0,0,1-3,2.14c-2.31,0-3.21-2-3.21-3.91,0-2.18,1.08-4,3.3-4s3.08,2,3.08,3.44c0,.22,0,.43,0,.63Zm4.81-.67c0-1.51-.83-2.69-2.32-2.69s-2.28,1.09-2.45,2.69Z" transform="translate(-331.38 -224.09)"/><path class="cls-5" d="M428.7,354.55a2,2,0,0,0,2.16,1.57c1.35,0,1.9-.62,1.9-1.47s-.37-1.29-2.07-1.7c-2-.47-2.44-1.06-2.44-2.06s.79-2,2.5-2a2.42,2.42,0,0,1,2.66,2.12h-.76a1.8,1.8,0,0,0-1.93-1.42c-1.32,0-1.7.65-1.7,1.26s.37,1,1.87,1.41c2.14.51,2.67,1.21,2.67,2.35,0,1.38-1.12,2.23-2.72,2.23a2.63,2.63,0,0,1-2.91-2.27Z" transform="translate(-331.38 -224.09)"/><path class="cls-5" d="M444.6,355.2a9.49,9.49,0,0,0,.1,1.44H444a5,5,0,0,1-.14-1.17,2.51,2.51,0,0,1-2.49,1.35,2.26,2.26,0,0,1-2.52-2.27c0-1.67,1.29-2.43,3.57-2.43h1.44v-.78c0-.76-.23-1.77-2-1.77-1.53,0-1.76.8-1.93,1.42h-.76c.09-.83.61-2.12,2.71-2.12,1.73,0,2.7.73,2.7,2.4Zm-.75-2.43h-1.48c-1.69,0-2.74.44-2.74,1.74a1.59,1.59,0,0,0,1.75,1.61c2.17,0,2.47-1.44,2.47-3.08Z" transform="translate(-331.38 -224.09)"/><path class="cls-5" d="M447.1,351c0-.67,0-1.3,0-1.91h.74a14,14,0,0,1,0,1.44,2.48,2.48,0,0,1,2.52-1.62c1.35,0,2.55.76,2.55,2.85v4.92h-.76v-4.8c0-1.35-.56-2.23-1.88-2.23-1.81,0-2.43,1.5-2.43,3.16v3.87h-.76Z" transform="translate(-331.38 -224.09)"/><path class="cls-5" d="M461.28,345.45v9c0,.73,0,1.43,0,2.19h-.72c0-.18-.05-.89-.05-1.27a2.49,2.49,0,0,1-2.55,1.45c-2,0-3.16-1.61-3.16-3.88s1.29-4.07,3.36-4.07c1.52,0,2.12.65,2.35,1.14v-4.56Zm-5.66,7.46c0,2.08,1.08,3.2,2.38,3.2,2,0,2.55-1.38,2.55-3.45s-.47-3.08-2.41-3.08C456.63,349.58,455.62,350.78,455.62,352.91Z" transform="translate(-331.38 -224.09)"/><path class="cls-5" d="M467.71,356.64V345.45h.76v11.19Z" transform="translate(-331.38 -224.09)"/><path class="cls-5" d="M476.06,355.2a9.12,9.12,0,0,0,.11,1.44h-.73a5,5,0,0,1-.14-1.17,2.48,2.48,0,0,1-2.48,1.35,2.26,2.26,0,0,1-2.53-2.27c0-1.67,1.29-2.43,3.57-2.43h1.44v-.78c0-.76-.22-1.77-1.95-1.77-1.54,0-1.77.8-1.93,1.42h-.76c.09-.83.61-2.12,2.7-2.12,1.73,0,2.7.73,2.7,2.4Zm-.74-2.43h-1.49c-1.68,0-2.73.44-2.73,1.74a1.58,1.58,0,0,0,1.75,1.61c2.17,0,2.47-1.44,2.47-3.08Z" transform="translate(-331.38 -224.09)"/><path class="cls-5" d="M484.37,356.12c0,2.43-1.08,3.71-3.28,3.71a2.67,2.67,0,0,1-3-2.26h.78a2.11,2.11,0,0,0,2.23,1.55c2,0,2.52-1.28,2.52-3.21v-.79a2.4,2.4,0,0,1-2.54,1.52c-1.77,0-3.14-1.44-3.14-3.8,0-2.55,1.46-4,3.25-4,1.55,0,2.22.73,2.43,1.33,0-.44,0-1,0-1.15h.72c0,.27,0,1.47,0,2.2Zm-5.6-3.31c0,1.81,1,3.12,2.41,3.12,1.9,0,2.47-1.26,2.47-3.24s-.6-3.11-2.43-3.11S478.77,351.08,478.77,352.81Z" transform="translate(-331.38 -224.09)"/><path class="cls-5" d="M491,356.64v-6.88h-1.31v-.71H491V348c0-1.27.36-2.67,2.06-2.67a2.51,2.51,0,0,1,.75.11v.72A3.81,3.81,0,0,0,493,346c-.9,0-1.23.64-1.23,2v1.05h1.65v.71h-1.65v6.88Z" transform="translate(-331.38 -224.09)"/><path class="cls-5" d="M494.69,351.11c0-1.27,0-1.82,0-2.06h.75c0,.24,0,.73,0,1.7a2.87,2.87,0,0,1,2.64-1.88v.82a2.74,2.74,0,0,0-2.64,3v3.95h-.76Z" transform="translate(-331.38 -224.09)"/><path class="cls-5" d="M499.65,352.94c0,1.95,1,3.17,2.46,3.17a2.15,2.15,0,0,0,2.19-1.43h.77a2.91,2.91,0,0,1-3,2.14c-2.31,0-3.2-2-3.2-3.91,0-2.18,1.08-4,3.29-4s3.08,2,3.08,3.44c0,.22,0,.43,0,.63Zm4.81-.67c0-1.51-.83-2.69-2.32-2.69s-2.28,1.09-2.44,2.69Z" transform="translate(-331.38 -224.09)"/><path class="cls-5" d="M507.35,352.94c0,1.95,1,3.17,2.46,3.17a2.14,2.14,0,0,0,2.18-1.43h.78a2.92,2.92,0,0,1-3,2.14c-2.31,0-3.21-2-3.21-3.91,0-2.18,1.08-4,3.3-4s3.08,2,3.08,3.44c0,.22,0,.43,0,.63Zm4.81-.67c0-1.51-.83-2.69-2.32-2.69s-2.28,1.09-2.45,2.69Z" transform="translate(-331.38 -224.09)"/><path class="cls-5" d="M331.63,363.67h.76v1.47h-.76Zm0,3.59h.76v7.6h-.76Z" transform="translate(-331.38 -224.09)"/><path class="cls-5" d="M334.88,369.18c0-.67,0-1.31,0-1.92h.74a14.21,14.21,0,0,1,0,1.45,2.48,2.48,0,0,1,2.52-1.63c1.35,0,2.55.76,2.55,2.86v4.92H340v-4.8c0-1.35-.56-2.23-1.88-2.23-1.81,0-2.43,1.5-2.43,3.15v3.88h-.76Z" transform="translate(-331.38 -224.09)"/><path class="cls-5" d="M342,367.26h1.41V364.9h.76v2.36H346V368h-1.8v4.93c0,.85.18,1.34.91,1.34a3.09,3.09,0,0,0,.79-.09v.67a2.81,2.81,0,0,1-.94.13c-1,0-1.52-.48-1.52-1.7V368H342Z" transform="translate(-331.38 -224.09)"/><path class="cls-5" d="M347.62,371.15c0,2,1,3.17,2.46,3.17a2.13,2.13,0,0,0,2.18-1.42H353a2.92,2.92,0,0,1-3,2.14c-2.31,0-3.21-2-3.21-3.92,0-2.17,1.08-4,3.3-4s3.08,2,3.08,3.45c0,.21,0,.42,0,.62Zm4.81-.67c0-1.5-.83-2.68-2.32-2.68s-2.28,1.09-2.45,2.68Z" transform="translate(-331.38 -224.09)"/><path class="cls-5" d="M355.07,369.33c0-1.28,0-1.82,0-2.07h.74c0,.25,0,.73,0,1.7a2.88,2.88,0,0,1,2.64-1.88v.82a2.74,2.74,0,0,0-2.64,3v3.95h-.76Z" transform="translate(-331.38 -224.09)"/><path class="cls-5" d="M364.94,373.41a9.78,9.78,0,0,0,.1,1.45h-.72a5,5,0,0,1-.14-1.17,2.51,2.51,0,0,1-2.49,1.35,2.26,2.26,0,0,1-2.52-2.28c0-1.67,1.29-2.43,3.57-2.43h1.44v-.77c0-.76-.23-1.78-2-1.78-1.53,0-1.76.8-1.93,1.43h-.76c.09-.84.61-2.13,2.71-2.13,1.73,0,2.7.73,2.7,2.4Zm-.75-2.43h-1.48c-1.69,0-2.74.44-2.74,1.75a1.59,1.59,0,0,0,1.75,1.61c2.17,0,2.47-1.44,2.47-3.08Z" transform="translate(-331.38 -224.09)"/><path class="cls-5" d="M373,372.62a2.93,2.93,0,0,1-2.95,2.42c-1.89,0-3.25-1.41-3.25-4,0-2.08,1.11-4,3.34-4a2.72,2.72,0,0,1,2.86,2.43h-.78a2,2,0,0,0-2.09-1.71c-1.61,0-2.52,1.36-2.52,3.26s.85,3.26,2.44,3.26a2.14,2.14,0,0,0,2.17-1.7Z" transform="translate(-331.38 -224.09)"/><path class="cls-5" d="M373.83,367.26h1.41V364.9H376v2.36h1.81V368H376v4.93c0,.85.19,1.34.91,1.34a3.09,3.09,0,0,0,.79-.09v.67a2.78,2.78,0,0,1-.94.13c-1,0-1.52-.48-1.52-1.7V368h-1.41Z" transform="translate(-331.38 -224.09)"/><path class="cls-5" d="M379.36,363.67h.76v1.47h-.76Zm0,3.59h.76v7.6h-.76Z" transform="translate(-331.38 -224.09)"/><path class="cls-5" d="M388.75,371c0,2.12-1.17,4-3.43,4-2.05,0-3.32-1.69-3.32-4s1.2-4,3.4-4C387.42,367.08,388.75,368.66,388.75,371Zm-5.95,0c0,1.81,1,3.26,2.58,3.26S388,373,388,371.06s-.91-3.26-2.6-3.26S382.8,369.24,382.8,371.06Z" transform="translate(-331.38 -224.09)"/><path class="cls-5" d="M390.64,369.18c0-.67,0-1.31,0-1.92h.74a14.21,14.21,0,0,1,0,1.45,2.48,2.48,0,0,1,2.52-1.63c1.36,0,2.56.76,2.56,2.86v4.92h-.76v-4.8c0-1.35-.57-2.23-1.89-2.23-1.8,0-2.43,1.5-2.43,3.15v3.88h-.75Z" transform="translate(-331.38 -224.09)"/><path class="cls-5" d="M397.72,376.59a9.72,9.72,0,0,0,1.07-3.68h.75a9.52,9.52,0,0,1-1.13,3.68Z" transform="translate(-331.38 -224.09)"/><path class="cls-5" d="M405.45,369.22c0-.65,0-1.36,0-2h.74c0,.26,0,.91,0,1.36a2.38,2.38,0,0,1,2.28-1.54,2.16,2.16,0,0,1,2.2,1.5,2.6,2.6,0,0,1,2.47-1.5c1.17,0,2.39.67,2.39,2.78v5h-.76V370c0-1-.37-2.12-1.78-2.12s-2.14,1.18-2.14,2.65v4.38h-.74V370c0-1.11-.34-2.14-1.73-2.14s-2.19,1.3-2.19,2.85v4.18h-.76Z" transform="translate(-331.38 -224.09)"/><path class="cls-5" d="M417.78,367.26c1.53,4.35,2.2,6.14,2.46,7h0c.3-.93.91-2.69,2.38-7h.79l-2.85,8c-.81,2.24-1.35,2.74-2.72,2.74a5.27,5.27,0,0,1-.7,0v-.76a5.12,5.12,0,0,0,.69,0c1.09,0,1.44-.53,2-2.09l-2.9-7.93Z" transform="translate(-331.38 -224.09)"/><path class="cls-5" d="M429.58,363.67v4.87a2.66,2.66,0,0,1,2.51-1.46c1.08,0,2.57.55,2.57,2.95v4.83h-.76v-4.68c0-1.5-.69-2.35-1.95-2.35-1.5,0-2.37.92-2.37,2.79v4.24h-.75V363.67Z" transform="translate(-331.38 -224.09)"/><path class="cls-5" d="M437.14,363.67h.76v1.47h-.76Zm0,3.59h.76v7.6h-.76Z" transform="translate(-331.38 -224.09)"/><path class="cls-5" d="M446.19,374.34c0,2.43-1.08,3.7-3.28,3.7a2.65,2.65,0,0,1-3-2.26h.77a2.1,2.1,0,0,0,2.23,1.55c2,0,2.52-1.28,2.52-3.2v-.79a2.41,2.41,0,0,1-2.53,1.52c-1.78,0-3.14-1.45-3.14-3.8,0-2.55,1.45-4,3.24-4,1.55,0,2.22.73,2.43,1.34,0-.44,0-1,.05-1.16h.71c0,.28,0,1.48,0,2.21Zm-5.6-3.31c0,1.81,1,3.11,2.41,3.11,1.9,0,2.48-1.26,2.48-3.23s-.61-3.11-2.43-3.11S440.59,369.3,440.59,371Z" transform="translate(-331.38 -224.09)"/><path class="cls-5" d="M449.44,363.67v4.87a2.64,2.64,0,0,1,2.5-1.46c1.08,0,2.57.55,2.57,2.95v4.83h-.76v-4.68c0-1.5-.68-2.35-1.94-2.35-1.51,0-2.37.92-2.37,2.79v4.24h-.76V363.67Z" transform="translate(-331.38 -224.09)"/><path class="cls-5" d="M457.17,371.15c0,2,1,3.17,2.46,3.17a2.13,2.13,0,0,0,2.18-1.42h.77a2.9,2.9,0,0,1-3,2.14c-2.3,0-3.2-2-3.2-3.92,0-2.17,1.08-4,3.3-4s3.08,2,3.08,3.45c0,.21,0,.42,0,.62Zm4.81-.67c0-1.5-.84-2.68-2.32-2.68s-2.28,1.09-2.45,2.68Z" transform="translate(-331.38 -224.09)"/><path class="cls-5" d="M464.8,372.76a2,2,0,0,0,2.16,1.58c1.35,0,1.89-.62,1.89-1.47s-.36-1.29-2.06-1.7c-2-.47-2.45-1.07-2.45-2.07s.79-2,2.51-2a2.42,2.42,0,0,1,2.66,2.13h-.76a1.79,1.79,0,0,0-1.93-1.43c-1.32,0-1.7.65-1.7,1.26s.36,1,1.87,1.41c2.14.52,2.67,1.22,2.67,2.36,0,1.38-1.12,2.23-2.72,2.23a2.63,2.63,0,0,1-2.91-2.28Z" transform="translate(-331.38 -224.09)"/><path class="cls-5" d="M470.36,367.26h1.41V364.9h.76v2.36h1.8V368h-1.8v4.93c0,.85.18,1.34.91,1.34a3.14,3.14,0,0,0,.79-.09v.67a2.85,2.85,0,0,1-.94.13c-1,0-1.52-.48-1.52-1.7V368h-1.41Z" transform="translate(-331.38 -224.09)"/><path class="cls-5" d="M480.59,373.73v4.16h-.76v-8.76c0-.62,0-1.29,0-1.87h.75c0,.29,0,.75,0,1.37a2.78,2.78,0,0,1,2.67-1.55c1.79,0,3,1.5,3,3.78,0,2.74-1.46,4.18-3.3,4.18A2.48,2.48,0,0,1,480.59,373.73Zm4.9-2.84c0-1.76-.85-3.08-2.35-3.08-1.84,0-2.6,1.15-2.6,3.22s.59,3.29,2.49,3.29C484.61,374.32,485.49,373,485.49,370.89Z" transform="translate(-331.38 -224.09)"/><path class="cls-5" d="M488.19,369.33c0-1.28,0-1.82,0-2.07h.74c0,.25,0,.73,0,1.7a2.88,2.88,0,0,1,2.64-1.88v.82a2.74,2.74,0,0,0-2.64,3v3.95h-.76Z" transform="translate(-331.38 -224.09)"/><path class="cls-5" d="M493,363.67h.76v1.47H493Zm0,3.59h.76v7.6H493Z" transform="translate(-331.38 -224.09)"/><path class="cls-5" d="M502.38,371c0,2.12-1.16,4-3.43,4-2.05,0-3.32-1.69-3.32-4s1.2-4,3.4-4C501.05,367.08,502.38,368.66,502.38,371Zm-5.95,0c0,1.81,1,3.26,2.58,3.26s2.57-1.35,2.57-3.26-.91-3.26-2.6-3.26S496.43,369.24,496.43,371.06Z" transform="translate(-331.38 -224.09)"/><path class="cls-5" d="M504.27,369.33c0-1.28,0-1.82,0-2.07H505c0,.25,0,.73,0,1.7a2.9,2.9,0,0,1,2.65-1.88v.82a2.75,2.75,0,0,0-2.65,3v3.95h-.75Z" transform="translate(-331.38 -224.09)"/><path class="cls-5" d="M509.06,363.67h.76v1.47h-.76Zm0,3.59h.76v7.6h-.76Z" transform="translate(-331.38 -224.09)"/><path class="cls-5" d="M511.28,367.26h1.41V364.9h.76v2.36h1.81V368h-1.81v4.93c0,.85.18,1.34.91,1.34a3.09,3.09,0,0,0,.79-.09v.67a2.81,2.81,0,0,1-.94.13c-1,0-1.52-.48-1.52-1.7V368h-1.41Z" transform="translate(-331.38 -224.09)"/><path class="cls-5" d="M517.06,367.26c1.53,4.35,2.2,6.14,2.46,7h0c.3-.93.91-2.69,2.38-7h.79l-2.85,8c-.81,2.24-1.36,2.74-2.72,2.74a5.08,5.08,0,0,1-.7,0v-.76a5.07,5.07,0,0,0,.68,0c1.1,0,1.44-.53,2-2.09l-2.9-7.93Z" transform="translate(-331.38 -224.09)"/><path class="cls-5" d="M522.94,374.86v-2h.75v2Z" transform="translate(-331.38 -224.09)"/></svg>