<svg id="Layer_1" data-name="Layer 1" xmlns="http://www.w3.org/2000/svg" viewBox="0 0 150.71 143.38"><defs><style>.cls-1,.cls-3{fill:none;}.cls-1,.cls-3,.cls-4{stroke:#173357;stroke-miterlimit:10;}.cls-1{stroke-width:4px;}.cls-2,.cls-4{fill:#173357;}.cls-3{stroke-width:2px;}.cls-4{stroke-width:0.5px;}</style></defs><title>Untitled-4</title><path class="cls-1" d="M471.68,235.42v45.4a13,13,0,0,1-13,13h-6.5v12.49a1.26,1.26,0,0,1-1.94,1.05l-20.78-13.54H385.24a13,13,0,0,1-13-13v-45.4a13,13,0,0,1,13-13h73.41A13,13,0,0,1,471.68,235.42Z" transform="translate(-352.83 -220.39)"/><path class="cls-2" d="M433.64,271.43v5.22h-39.3a2.61,2.61,0,0,1-2.61-2.61,2.61,2.61,0,0,1,2.61-2.61Z" transform="translate(-352.83 -220.39)"/><path class="cls-1" d="M433.64,271.43H397.78V244a3.56,3.56,0,0,1,3.56-3.56h39.59a3.56,3.56,0,0,1,3.56,3.56v6.58" transform="translate(-352.83 -220.39)"/><path class="cls-3" d="M449.57,250.63H436.38a2.75,2.75,0,0,0-2.74,2.75v24.76a2.74,2.74,0,0,0,2.74,2.74h13.19a2.75,2.75,0,0,0,2.75-2.74V253.38A2.75,2.75,0,0,0,449.57,250.63Zm-.84,21.64a1.37,1.37,0,0,1-1.37,1.38h-9a1.37,1.37,0,0,1-1.37-1.38v-16a1.37,1.37,0,0,1,1.37-1.37h9a1.37,1.37,0,0,1,1.37,1.37Z" transform="translate(-352.83 -220.39)"/><path class="cls-4" d="M362.28,337.23c0-2.08,0-4.07.06-5.13h0c-.43,1.43-2.58,6.67-3.93,10h-.81c-1-2.59-3.25-8.42-3.73-10h0c.07,1.21.1,3.69.1,5.51v4.52h-.82V331.49h1.23c1.46,3.65,3.3,8.41,3.69,9.61h0c.24-.77,2.37-6.07,3.86-9.61h1.21v10.63h-.82Z" transform="translate(-352.83 -220.39)"/><path class="cls-4" d="M365.56,334.53c1.53,4.34,2.2,6.13,2.46,7h0c.31-.92.91-2.68,2.39-7h.79l-2.86,8c-.8,2.25-1.35,2.75-2.71,2.75a5,5,0,0,1-.7-.05v-.75a5,5,0,0,0,.68,0c1.09,0,1.44-.53,2-2.09l-2.9-7.93Z" transform="translate(-352.83 -220.39)"/><path class="cls-4" d="M376.61,342.12V330.93h.76v11.19Z" transform="translate(-352.83 -220.39)"/><path class="cls-4" d="M385,340.68a8,8,0,0,0,.11,1.44h-.73a4.87,4.87,0,0,1-.14-1.17,2.51,2.51,0,0,1-2.49,1.35,2.26,2.26,0,0,1-2.52-2.27c0-1.67,1.29-2.43,3.57-2.43h1.44v-.78c0-.76-.23-1.77-2-1.77-1.53,0-1.76.8-1.93,1.42h-.76c.1-.83.61-2.12,2.71-2.12,1.73,0,2.7.73,2.7,2.4Zm-.74-2.43h-1.49c-1.69,0-2.74.44-2.74,1.75a1.59,1.59,0,0,0,1.75,1.61c2.17,0,2.48-1.45,2.48-3.09Z" transform="translate(-352.83 -220.39)"/><path class="cls-4" d="M387.19,334.53c1.53,4.34,2.2,6.13,2.46,7h0c.31-.92.92-2.68,2.39-7h.79l-2.86,8c-.8,2.25-1.35,2.75-2.71,2.75a5,5,0,0,1-.7-.05v-.75a5,5,0,0,0,.68,0c1.09,0,1.44-.53,2-2.09l-2.9-7.93Z" transform="translate(-352.83 -220.39)"/><path class="cls-4" d="M400.52,338.31c0,2.11-1.17,4-3.43,4-2,0-3.33-1.68-3.33-4s1.2-4,3.4-4C399.18,334.35,400.52,335.93,400.52,338.31Zm-5.95,0c0,1.8,1,3.26,2.58,3.26s2.56-1.35,2.56-3.26-.91-3.27-2.59-3.27S394.57,336.5,394.57,338.33Z" transform="translate(-352.83 -220.39)"/><path class="cls-4" d="M408.08,339.9c0,.75,0,1.93,0,2.22h-.73a12.85,12.85,0,0,1,0-1.32,2.33,2.33,0,0,1-2.45,1.5c-1.09,0-2.49-.42-2.49-2.74v-5h.75v4.84c0,1.11.35,2.19,1.85,2.19,1.7,0,2.34-1,2.34-3.13v-3.9h.76Z" transform="translate(-352.83 -220.39)"/><path class="cls-4" d="M409.61,334.53H411v-2.37h.76v2.37h1.81v.71h-1.81v4.94c0,.85.18,1.33.91,1.33a2.7,2.7,0,0,0,.79-.09v.67a2.58,2.58,0,0,1-.94.14c-1,0-1.52-.49-1.52-1.7v-5.29h-1.41Z" transform="translate(-352.83 -220.39)"/><path class="cls-4" d="M415.39,340a2,2,0,0,0,2.16,1.58c1.35,0,1.9-.63,1.9-1.48s-.37-1.29-2.07-1.7c-2-.47-2.44-1.06-2.44-2.06s.79-2,2.5-2a2.42,2.42,0,0,1,2.66,2.12h-.76a1.8,1.8,0,0,0-1.93-1.42c-1.32,0-1.7.65-1.7,1.26s.37,1,1.87,1.41c2.14.51,2.67,1.21,2.67,2.35,0,1.38-1.12,2.23-2.72,2.23a2.63,2.63,0,0,1-2.91-2.27Z" transform="translate(-352.83 -220.39)"/><path class="cls-4" d="M426.09,334.53c1.13,3.92,1.78,6.17,1.9,6.83h0c.12-.6.88-3,2.06-6.83h.82c1.41,4.69,1.84,6,2,6.64h0c.21-.84.56-2,2-6.64h.8l-2.4,7.59h-.83c-.82-2.69-1.81-6-2-6.68h0c-.16.75-1,3.46-2,6.68h-.91l-2.23-7.59Z" transform="translate(-352.83 -220.39)"/><path class="cls-4" d="M437.25,330.93H438v1.47h-.76Zm0,3.6H438v7.59h-.76Z" transform="translate(-352.83 -220.39)"/><path class="cls-4" d="M440.5,342.12V330.93h.76v11.19Z" transform="translate(-352.83 -220.39)"/><path class="cls-4" d="M443.75,342.12V330.93h.76v11.19Z" transform="translate(-352.83 -220.39)"/><path class="cls-4" d="M451,334.53c1.12,3.92,1.77,6.17,1.89,6.83h0c.12-.6.88-3,2.06-6.83h.82c1.42,4.69,1.84,6,2,6.64h0c.22-.84.56-2,2-6.64h.81l-2.4,7.59h-.84c-.82-2.69-1.8-6-2-6.68h0c-.15.75-1,3.46-2,6.68h-.91l-2.23-7.59Z" transform="translate(-352.83 -220.39)"/><path class="cls-4" d="M468.22,338.31c0,2.11-1.17,4-3.43,4-2.05,0-3.33-1.68-3.33-4s1.2-4,3.4-4C466.88,334.35,468.22,335.93,468.22,338.31Zm-6,0c0,1.8,1,3.26,2.58,3.26s2.56-1.35,2.56-3.26-.91-3.27-2.59-3.27S462.27,336.5,462.27,338.33Z" transform="translate(-352.83 -220.39)"/><path class="cls-4" d="M470.1,336.6c0-1.28,0-1.83,0-2.07h.75c0,.24,0,.73,0,1.7a2.87,2.87,0,0,1,2.64-1.88v.82a2.74,2.74,0,0,0-2.64,3v3.95h-.76Z" transform="translate(-352.83 -220.39)"/><path class="cls-4" d="M475.77,338.45c.7-.75,2.83-2.9,3.85-3.92h1l-3,3,3.39,4.57H480L477,338l-1.27,1.21v2.87H475V330.93h.75Z" transform="translate(-352.83 -220.39)"/><path class="cls-4" d="M492.23,338.31c0,2.11-1.17,4-3.43,4-2.05,0-3.33-1.68-3.33-4s1.2-4,3.41-4C490.89,334.35,492.23,335.93,492.23,338.31Zm-6,0c0,1.8,1,3.26,2.58,3.26s2.57-1.35,2.57-3.26-.92-3.27-2.6-3.27S486.28,336.5,486.28,338.33Z" transform="translate(-352.83 -220.39)"/><path class="cls-4" d="M494.11,336.44c0-.66,0-1.3,0-1.91h.74c0,.24,0,1.23,0,1.44a2.48,2.48,0,0,1,2.52-1.62c1.35,0,2.55.76,2.55,2.85v4.92h-.76v-4.8c0-1.35-.56-2.23-1.88-2.23-1.81,0-2.43,1.51-2.43,3.16v3.87h-.76Z" transform="translate(-352.83 -220.39)"/><path class="cls-4" d="M359,358.89a8.26,8.26,0,0,0,.11,1.45h-.73a5,5,0,0,1-.14-1.17,2.48,2.48,0,0,1-2.49,1.35,2.26,2.26,0,0,1-2.52-2.28c0-1.67,1.29-2.43,3.57-2.43h1.44V355c0-.76-.22-1.78-2-1.78-1.53,0-1.76.81-1.92,1.43h-.76c.09-.84.6-2.13,2.7-2.13,1.73,0,2.7.73,2.7,2.4Zm-.74-2.43h-1.49c-1.68,0-2.73.44-2.73,1.75a1.58,1.58,0,0,0,1.74,1.61c2.17,0,2.48-1.44,2.48-3.08Z" transform="translate(-352.83 -220.39)"/><path class="cls-4" d="M361.48,354.66c0-.67,0-1.31,0-1.91h.74a14,14,0,0,1,0,1.44,2.49,2.49,0,0,1,2.53-1.63c1.35,0,2.55.76,2.55,2.86v4.92h-.76v-4.8c0-1.35-.56-2.23-1.89-2.23-1.8,0-2.43,1.5-2.43,3.15v3.88h-.75Z" transform="translate(-352.83 -220.39)"/><path class="cls-4" d="M369.54,352.75c1.53,4.34,2.2,6.13,2.46,6.95h0c.3-.93.91-2.69,2.38-6.95h.79l-2.85,8c-.8,2.24-1.35,2.75-2.72,2.75a5.24,5.24,0,0,1-.7,0v-.76a5.09,5.09,0,0,0,.69,0c1.09,0,1.44-.54,2-2.1l-2.9-7.92Z" transform="translate(-352.83 -220.39)"/><path class="cls-4" d="M386.45,349.15v9c0,.73,0,1.43,0,2.19h-.73c0-.19,0-.9,0-1.28a2.48,2.48,0,0,1-2.55,1.46c-2,0-3.16-1.61-3.16-3.89s1.29-4.07,3.35-4.07a2.35,2.35,0,0,1,2.36,1.14v-4.55Zm-5.67,7.45c0,2.08,1.08,3.2,2.39,3.2,2,0,2.55-1.38,2.55-3.44s-.47-3.08-2.42-3.08C381.8,353.28,380.78,354.48,380.78,356.6Z" transform="translate(-352.83 -220.39)"/><path class="cls-4" d="M389.1,356.63c0,2,1,3.17,2.46,3.17a2.15,2.15,0,0,0,2.19-1.42h.77a2.91,2.91,0,0,1-3,2.14c-2.31,0-3.2-2-3.2-3.92,0-2.17,1.08-4,3.29-4s3.08,2,3.08,3.45c0,.21,0,.42,0,.62Zm4.81-.67c0-1.5-.83-2.68-2.32-2.68s-2.28,1.09-2.44,2.68Z" transform="translate(-352.83 -220.39)"/><path class="cls-4" d="M396.58,352.75c1.23,3.47,2.09,5.84,2.37,6.81h0c.17-.56,1-2.82,2.49-6.81h.8l-2.87,7.59h-.91l-2.7-7.59Z" transform="translate(-352.83 -220.39)"/><path class="cls-4" d="M403.8,349.15h.75v1.47h-.75Zm0,3.6h.75v7.59h-.75Z" transform="translate(-352.83 -220.39)"/><path class="cls-4" d="M412.63,358.11a2.91,2.91,0,0,1-2.94,2.41c-1.9,0-3.25-1.41-3.25-3.95,0-2.08,1.1-4,3.34-4a2.72,2.72,0,0,1,2.85,2.43h-.77a2.05,2.05,0,0,0-2.1-1.71c-1.61,0-2.52,1.36-2.52,3.26s.85,3.26,2.45,3.26a2.15,2.15,0,0,0,2.17-1.69Z" transform="translate(-352.83 -220.39)"/><path class="cls-4" d="M414.63,356.63c0,2,1,3.17,2.46,3.17a2.14,2.14,0,0,0,2.19-1.42h.77a2.91,2.91,0,0,1-3,2.14c-2.31,0-3.2-2-3.2-3.92,0-2.17,1.08-4,3.29-4s3.09,2,3.09,3.45c0,.21,0,.42,0,.62Zm4.82-.67c0-1.5-.84-2.68-2.33-2.68s-2.27,1.09-2.44,2.68Z" transform="translate(-352.83 -220.39)"/><path class="cls-4" d="M421.17,362.07a9.72,9.72,0,0,0,1.07-3.68H423a9.53,9.53,0,0,1-1.14,3.68Z" transform="translate(-352.83 -220.39)"/><path class="cls-4" d="M428.9,349.15h.76V354a2.63,2.63,0,0,1,2.6-1.46c1.79,0,3.11,1.48,3.11,3.81s-1.19,4.15-3.31,4.15a2.37,2.37,0,0,1-2.4-1.38c0,.48,0,1,0,1.2h-.74c0-.87,0-1.73,0-2.6Zm5.66,7.24c0-1.9-.94-3.11-2.38-3.11-1.9,0-2.56,1.29-2.56,3.28,0,1.79.59,3.24,2.47,3.24C433.62,359.8,434.56,358.53,434.56,356.39Z" transform="translate(-352.83 -220.39)"/><path class="cls-4" d="M437.31,349.15h.76v1.47h-.76Zm0,3.6h.76v7.59h-.76Z" transform="translate(-352.83 -220.39)"/><path class="cls-4" d="M446.36,359.82c0,2.43-1.08,3.71-3.28,3.71a2.68,2.68,0,0,1-3-2.27h.78a2.1,2.1,0,0,0,2.23,1.55c2,0,2.52-1.27,2.52-3.2v-.79a2.41,2.41,0,0,1-2.54,1.52c-1.77,0-3.14-1.45-3.14-3.8,0-2.55,1.46-4,3.25-4,1.55,0,2.22.73,2.43,1.34,0-.44,0-1,.05-1.15h.71c0,.27,0,1.47,0,2.2Zm-5.6-3.31c0,1.81.95,3.11,2.41,3.11,1.9,0,2.48-1.26,2.48-3.23s-.61-3.11-2.43-3.11S440.76,354.78,440.76,356.51Z" transform="translate(-352.83 -220.39)"/><path class="cls-4" d="M458.94,356.53c0,2.11-1.17,4-3.43,4-2.05,0-3.32-1.69-3.32-4s1.2-4,3.4-4C457.61,352.56,458.94,354.14,458.94,356.53Zm-5.95,0c0,1.81,1,3.26,2.58,3.26s2.57-1.35,2.57-3.26-.91-3.26-2.6-3.26S453,354.72,453,356.54Z" transform="translate(-352.83 -220.39)"/><path class="cls-4" d="M460.82,354.81c0-1.27,0-1.82,0-2.06h.74c0,.24,0,.72,0,1.7a2.88,2.88,0,0,1,2.64-1.89v.82a2.74,2.74,0,0,0-2.64,3v3.95h-.76Z" transform="translate(-352.83 -220.39)"/><path class="cls-4" d="M469.69,358.24a2,2,0,0,0,2.15,1.58c1.35,0,1.9-.62,1.9-1.47s-.36-1.29-2.06-1.7c-2-.47-2.45-1.07-2.45-2.07s.79-2,2.51-2a2.42,2.42,0,0,1,2.65,2.13h-.76a1.78,1.78,0,0,0-1.92-1.43c-1.32,0-1.7.65-1.7,1.26s.36,1.05,1.86,1.41c2.14.52,2.68,1.22,2.68,2.36,0,1.38-1.13,2.23-2.72,2.23a2.65,2.65,0,0,1-2.92-2.28Z" transform="translate(-352.83 -220.39)"/><path class="cls-4" d="M476.32,354.7c0-.65,0-1.36,0-1.95h.74c0,.25,0,.91,0,1.35a2.38,2.38,0,0,1,2.28-1.54,2.16,2.16,0,0,1,2.2,1.51,2.59,2.59,0,0,1,2.47-1.51c1.17,0,2.39.67,2.39,2.78v5h-.76v-4.91c0-1-.37-2.12-1.78-2.12s-2.14,1.18-2.14,2.65v4.38H481v-4.89c0-1.11-.34-2.14-1.73-2.14s-2.19,1.3-2.19,2.85v4.18h-.76Z" transform="translate(-352.83 -220.39)"/><path class="cls-4" d="M494,358.89a8.26,8.26,0,0,0,.11,1.45h-.73a5,5,0,0,1-.14-1.17,2.49,2.49,0,0,1-2.49,1.35,2.26,2.26,0,0,1-2.52-2.28c0-1.67,1.29-2.43,3.57-2.43h1.44V355c0-.76-.23-1.78-2-1.78-1.53,0-1.76.81-1.92,1.43h-.76c.09-.84.6-2.13,2.7-2.13,1.73,0,2.7.73,2.7,2.4Zm-.74-2.43h-1.49c-1.69,0-2.73.44-2.73,1.75a1.58,1.58,0,0,0,1.74,1.61c2.17,0,2.48-1.44,2.48-3.08Z" transform="translate(-352.83 -220.39)"/><path class="cls-4" d="M496.52,360.34V349.15h.76v11.19Z" transform="translate(-352.83 -220.39)"/><path class="cls-4" d="M499.77,360.34V349.15h.76v11.19Z" transform="translate(-352.83 -220.39)"/><path class="cls-4" d="M502.54,360.34v-2h.75v2Z" transform="translate(-352.83 -220.39)"/></svg>