<svg id="Layer_1" data-name="Layer 1" xmlns="http://www.w3.org/2000/svg" viewBox="0 0 173.69 146.73"><defs><style>.cls-1,.cls-2,.cls-3,.cls-4{fill:none;}.cls-1,.cls-2,.cls-3,.cls-4,.cls-5{stroke:#173357;}.cls-1,.cls-3,.cls-4,.cls-5{stroke-miterlimit:10;}.cls-1,.cls-2{stroke-width:4px;}.cls-2,.cls-4{stroke-linecap:round;}.cls-2{stroke-linejoin:round;}.cls-3,.cls-4{stroke-width:3px;}.cls-5{fill:#173357;stroke-width:0.5px;}</style></defs><title>Untitled-5</title><path class="cls-1" d="M368.2,262.33" transform="translate(-341.38 -218.72)"/><path class="cls-1" d="M370.64,263.23" transform="translate(-341.38 -218.72)"/><path class="cls-1" d="M463.81,272.56" transform="translate(-341.38 -218.72)"/><path class="cls-2" d="M460.1,274.31a12.45,12.45,0,0,1-9.6,20.17,8.51,8.51,0,0,1,.47,2.76c0,5.5-5.36,10-11.94,10-6.33,0-11.51-4.11-11.9-9.3a27.33,27.33,0,0,1-14.29,3.77c-11.49,0-20.85-6.21-21.16-14A12.65,12.65,0,0,1,386,289a12.84,12.84,0,0,1-5.49-24.45,13.39,13.39,0,0,1,10.45-21.78,4.53,4.53,0,0,1,4.53-4.51,4.46,4.46,0,0,1,3,1.14c.69-.41,1.4-.8,2.12-1.18a22.59,22.59,0,0,1,40.89-7.34,11.66,11.66,0,0,1,11.73,3.35,23.42,23.42,0,0,1,6.53-.93c12.07,0,21.85,9.18,21.85,20.5S472,274.14,460.1,274.31Z" transform="translate(-341.38 -218.72)"/><path class="cls-1" d="M370.64,263.23" transform="translate(-341.38 -218.72)"/><circle class="cls-2" cx="125.47" cy="89.02" r="6.04"/><path class="cls-3" d="M420.23,270v3.88a2.54,2.54,0,0,0,2.54,2.54h7.65a2.54,2.54,0,0,0,2.54-2.54V270c-.25-4.38,3.78-7.52,3.78-7.52a13,13,0,1,0-21.35-.37S420.23,266.13,420.23,270Z" transform="translate(-341.38 -218.72)"/><line class="cls-4" x1="79.77" y1="61.56" x2="90.98" y2="61.56"/><line class="cls-4" x1="80.35" y1="65.46" x2="90.4" y2="65.46"/><path class="cls-5" d="M360.22,340.94a2.73,2.73,0,0,0,3,2.25c1.95,0,2.69-1,2.69-2.13s-.53-1.94-2.87-2.52-3.22-1.29-3.22-2.82,1-2.71,3.3-2.71,3.32,1.43,3.46,2.72h-.85a2.38,2.38,0,0,0-2.66-2c-1.53,0-2.37.72-2.37,1.9s.7,1.63,2.66,2.11c3,.75,3.43,1.94,3.43,3.22,0,1.56-1.14,2.92-3.6,2.92-2.65,0-3.63-1.55-3.82-3Z" transform="translate(-341.38 -218.72)"/><path class="cls-5" d="M367.71,336.2h1.42v-2.37h.76v2.37h1.8v.72h-1.8v4.93c0,.85.18,1.34.91,1.34a3.19,3.19,0,0,0,.79-.09v.66a2.63,2.63,0,0,1-.95.14c-1,0-1.51-.49-1.51-1.7v-5.28h-1.42Z" transform="translate(-341.38 -218.72)"/><path class="cls-5" d="M373.1,338.27c0-1.28,0-1.82,0-2.07h.74c0,.25,0,.73,0,1.7A2.87,2.87,0,0,1,376.5,336v.82a2.74,2.74,0,0,0-2.64,3v3.94h-.76Z" transform="translate(-341.38 -218.72)"/><path class="cls-5" d="M384.05,340c0,2.11-1.17,4-3.43,4-2.05,0-3.33-1.69-3.33-4s1.2-4,3.4-4C382.71,336,384.05,337.6,384.05,340Zm-5.95,0c0,1.8,1,3.26,2.58,3.26s2.56-1.35,2.56-3.26-.91-3.27-2.59-3.27S378.1,338.18,378.1,340Z" transform="translate(-341.38 -218.72)"/><path class="cls-5" d="M385.93,338.12c0-.67,0-1.31,0-1.92h.75c0,.25,0,1.23,0,1.45a2.48,2.48,0,0,1,2.52-1.63c1.35,0,2.55.76,2.55,2.86v4.91H391V339c0-1.35-.56-2.24-1.88-2.24-1.81,0-2.43,1.51-2.43,3.16v3.87h-.76Z" transform="translate(-341.38 -218.72)"/><path class="cls-5" d="M400.05,343.28c0,2.43-1.08,3.7-3.28,3.7a2.67,2.67,0,0,1-3-2.26h.78a2.1,2.1,0,0,0,2.23,1.55c2,0,2.52-1.28,2.52-3.2v-.79a2.41,2.41,0,0,1-2.54,1.51c-1.77,0-3.14-1.44-3.14-3.79,0-2.55,1.46-4,3.25-4,1.55,0,2.22.73,2.43,1.34,0-.44,0-1,0-1.16h.72c0,.28,0,1.48,0,2.2ZM394.44,340c0,1.8,1,3.11,2.42,3.11,1.9,0,2.47-1.26,2.47-3.23s-.6-3.12-2.43-3.12S394.44,338.24,394.44,340Z" transform="translate(-341.38 -218.72)"/><path class="cls-5" d="M407.24,342.67v4.16h-.76v-8.76c0-.62,0-1.29,0-1.87h.74c0,.29,0,.75,0,1.37a2.79,2.79,0,0,1,2.67-1.55c1.79,0,3,1.5,3,3.78,0,2.73-1.46,4.18-3.3,4.18A2.49,2.49,0,0,1,407.24,342.67Zm4.91-2.84c0-1.76-.86-3.08-2.36-3.08-1.84,0-2.59,1.15-2.59,3.22s.59,3.29,2.49,3.29C411.26,343.26,412.15,341.93,412.15,339.83Z" transform="translate(-341.38 -218.72)"/><path class="cls-5" d="M414.85,338.27c0-1.28,0-1.82,0-2.07h.74c0,.25,0,.73,0,1.7a2.88,2.88,0,0,1,2.65-1.88v.82a2.75,2.75,0,0,0-2.65,3v3.94h-.75Z" transform="translate(-341.38 -218.72)"/><path class="cls-5" d="M419.81,340.09c0,2,1,3.17,2.46,3.17a2.14,2.14,0,0,0,2.19-1.43h.77a2.91,2.91,0,0,1-3,2.15c-2.31,0-3.2-2-3.2-3.92,0-2.17,1.07-4,3.29-4s3.08,2,3.08,3.45c0,.21,0,.42,0,.62Zm4.81-.67c0-1.5-.83-2.69-2.32-2.69s-2.28,1.1-2.45,2.69Z" transform="translate(-341.38 -218.72)"/><path class="cls-5" d="M427.66,343.79v-6.87h-1.31v-.72h1.31v-1.07c0-1.28.36-2.68,2.06-2.68a3,3,0,0,1,.75.11v.73a3.88,3.88,0,0,0-.82-.09c-.9,0-1.23.63-1.23,2v1h1.65v.72h-1.65v6.87Z" transform="translate(-341.38 -218.72)"/><path class="cls-5" d="M431.44,340.09c0,2,1,3.17,2.46,3.17a2.13,2.13,0,0,0,2.18-1.43h.78a2.92,2.92,0,0,1-3,2.15c-2.31,0-3.21-2-3.21-3.92,0-2.17,1.08-4,3.3-4s3.08,2,3.08,3.45c0,.21,0,.42,0,.62Zm4.81-.67c0-1.5-.84-2.69-2.32-2.69s-2.28,1.1-2.45,2.69Z" transform="translate(-341.38 -218.72)"/><path class="cls-5" d="M438.89,338.27c0-1.28,0-1.82,0-2.07h.74c0,.25,0,.73,0,1.7a2.87,2.87,0,0,1,2.64-1.88v.82a2.74,2.74,0,0,0-2.64,3v3.94h-.76Z" transform="translate(-341.38 -218.72)"/><path class="cls-5" d="M443.85,340.09c0,2,1,3.17,2.46,3.17a2.13,2.13,0,0,0,2.19-1.43h.77a2.91,2.91,0,0,1-3,2.15c-2.31,0-3.2-2-3.2-3.92,0-2.17,1.08-4,3.29-4s3.09,2,3.09,3.45c0,.21,0,.42,0,.62Zm4.82-.67c0-1.5-.84-2.69-2.33-2.69s-2.27,1.1-2.44,2.69Z" transform="translate(-341.38 -218.72)"/><path class="cls-5" d="M451.31,338.12c0-.67,0-1.31,0-1.92H452c0,.25,0,1.23,0,1.45a2.47,2.47,0,0,1,2.52-1.63c1.35,0,2.55.76,2.55,2.86v4.91h-.76V339c0-1.35-.56-2.24-1.89-2.24-1.8,0-2.42,1.51-2.42,3.16v3.87h-.76Z" transform="translate(-341.38 -218.72)"/><path class="cls-5" d="M465.21,341.56a2.91,2.91,0,0,1-2.94,2.42c-1.9,0-3.25-1.42-3.25-4,0-2.08,1.11-4,3.34-4a2.71,2.71,0,0,1,2.85,2.43h-.77a2.06,2.06,0,0,0-2.1-1.72c-1.61,0-2.52,1.37-2.52,3.27s.85,3.26,2.45,3.26a2.15,2.15,0,0,0,2.17-1.7Z" transform="translate(-341.38 -218.72)"/><path class="cls-5" d="M467.21,340.09c0,2,1,3.17,2.46,3.17a2.13,2.13,0,0,0,2.19-1.43h.77a2.91,2.91,0,0,1-3,2.15c-2.31,0-3.2-2-3.2-3.92,0-2.17,1.08-4,3.29-4s3.09,2,3.09,3.45c0,.21,0,.42,0,.62Zm4.82-.67c0-1.5-.84-2.69-2.33-2.69s-2.27,1.1-2.44,2.69Z" transform="translate(-341.38 -218.72)"/><path class="cls-5" d="M478.81,343.79v-6.87H477.5v-.72h1.31v-1.07c0-1.28.36-2.68,2.07-2.68a2.87,2.87,0,0,1,.74.11v.73a3.81,3.81,0,0,0-.82-.09c-.9,0-1.23.63-1.23,2v1h1.65v.72h-1.65v6.87Z" transform="translate(-341.38 -218.72)"/><path class="cls-5" d="M488.57,340c0,2.11-1.17,4-3.43,4-2.05,0-3.32-1.69-3.32-4s1.19-4,3.4-4C487.24,336,488.57,337.6,488.57,340Zm-5.95,0c0,1.8,1,3.26,2.58,3.26s2.57-1.35,2.57-3.26-.91-3.27-2.6-3.27S482.62,338.18,482.62,340Z" transform="translate(-341.38 -218.72)"/><path class="cls-5" d="M490.45,338.27c0-1.28,0-1.82,0-2.07h.74c0,.25,0,.73,0,1.7a2.87,2.87,0,0,1,2.64-1.88v.82a2.74,2.74,0,0,0-2.64,3v3.94h-.76Z" transform="translate(-341.38 -218.72)"/><path class="cls-5" d="M342.4,358.3c0,2,1,3.18,2.46,3.18a2.14,2.14,0,0,0,2.19-1.43h.77a2.91,2.91,0,0,1-3,2.14c-2.31,0-3.2-2-3.2-3.92,0-2.17,1.08-4,3.29-4s3.09,2,3.09,3.44c0,.21,0,.43,0,.62Zm4.82-.66c0-1.51-.84-2.69-2.33-2.69s-2.27,1.09-2.44,2.69Z" transform="translate(-341.38 -218.72)"/><path class="cls-5" d="M355.06,360.57a8.12,8.12,0,0,0,.11,1.44h-.73a5,5,0,0,1-.14-1.17,2.48,2.48,0,0,1-2.49,1.35,2.26,2.26,0,0,1-2.52-2.28c0-1.67,1.29-2.43,3.57-2.43h1.44v-.77c0-.76-.22-1.78-1.95-1.78-1.54,0-1.77.81-1.93,1.43h-.76c.09-.83.61-2.12,2.7-2.12,1.73,0,2.7.72,2.7,2.39Zm-.74-2.43h-1.49c-1.68,0-2.73.44-2.73,1.74a1.58,1.58,0,0,0,1.75,1.61c2.17,0,2.47-1.44,2.47-3.08Z" transform="translate(-341.38 -218.72)"/><path class="cls-5" d="M357.49,359.91a2,2,0,0,0,2.16,1.58c1.35,0,1.9-.62,1.9-1.47s-.37-1.29-2.07-1.7c-2-.47-2.44-1.06-2.44-2.07s.79-2,2.5-2a2.42,2.42,0,0,1,2.66,2.12h-.76a1.79,1.79,0,0,0-1.93-1.43c-1.32,0-1.7.66-1.7,1.26s.36,1.05,1.87,1.42c2.14.51,2.67,1.21,2.67,2.35,0,1.38-1.12,2.23-2.72,2.23a2.63,2.63,0,0,1-2.91-2.28Z" transform="translate(-341.38 -218.72)"/><path class="cls-5" d="M364.2,354.42c1.53,4.34,2.2,6.13,2.46,6.95h0c.3-.92.91-2.69,2.38-6.95h.79l-2.86,8c-.8,2.25-1.35,2.75-2.71,2.75a5,5,0,0,1-.7-.05v-.76a5.06,5.06,0,0,0,.68.05c1.09,0,1.44-.53,2-2.1l-2.9-7.92Z" transform="translate(-341.38 -218.72)"/><path class="cls-5" d="M374.11,354.42h1.41v-2.37h.76v2.37h1.81v.71h-1.81v4.94c0,.85.19,1.33.91,1.33a2.7,2.7,0,0,0,.79-.09V362a2.77,2.77,0,0,1-.94.14c-1,0-1.52-.49-1.52-1.7v-5.29h-1.41Z" transform="translate(-341.38 -218.72)"/><path class="cls-5" d="M385.7,358.2c0,2.11-1.17,4-3.44,4-2.05,0-3.32-1.68-3.32-4s1.2-4,3.4-4C384.36,354.24,385.7,355.81,385.7,358.2Zm-6,0c0,1.81,1,3.27,2.58,3.27s2.57-1.35,2.57-3.27S384,355,382.29,355,379.74,356.39,379.74,358.21Z" transform="translate(-341.38 -218.72)"/><path class="cls-5" d="M397.2,359.79c0,.75,0,1.93,0,2.22h-.73a12,12,0,0,1-.05-1.32,2.33,2.33,0,0,1-2.44,1.5c-1.1,0-2.49-.42-2.49-2.75v-5h.74v4.84c0,1.11.35,2.19,1.85,2.19,1.7,0,2.34-1,2.34-3.13v-3.9h.76Z" transform="translate(-341.38 -218.72)"/><path class="cls-5" d="M399.6,359.91a2,2,0,0,0,2.15,1.58c1.35,0,1.9-.62,1.9-1.47s-.36-1.29-2.06-1.7c-2-.47-2.45-1.06-2.45-2.07s.79-2,2.51-2a2.41,2.41,0,0,1,2.65,2.12h-.75a1.79,1.79,0,0,0-1.93-1.43c-1.32,0-1.7.66-1.7,1.26s.36,1.05,1.86,1.42c2.14.51,2.68,1.21,2.68,2.35,0,1.38-1.13,2.23-2.72,2.23a2.65,2.65,0,0,1-2.92-2.28Z" transform="translate(-341.38 -218.72)"/><path class="cls-5" d="M406.5,358.3c0,2,1,3.18,2.46,3.18a2.14,2.14,0,0,0,2.19-1.43h.77a2.9,2.9,0,0,1-3,2.14c-2.3,0-3.2-2-3.2-3.92,0-2.17,1.08-4,3.29-4s3.09,2,3.09,3.44c0,.21,0,.43,0,.62Zm4.82-.66c0-1.51-.84-2.69-2.33-2.69s-2.27,1.09-2.44,2.69Z" transform="translate(-341.38 -218.72)"/><path class="cls-5" d="M413.05,363.74a9.77,9.77,0,0,0,1.06-3.67h.76a9.48,9.48,0,0,1-1.14,3.67Z" transform="translate(-341.38 -218.72)"/><path class="cls-5" d="M420.77,350.82h.76v1.47h-.76Zm0,3.6h.76V362h-.76Z" transform="translate(-341.38 -218.72)"/><path class="cls-5" d="M424,356.33c0-.67,0-1.31,0-1.91h.74c0,.24,0,1.23,0,1.44a2.48,2.48,0,0,1,2.52-1.62c1.35,0,2.55.75,2.55,2.85V362h-.76v-4.8c0-1.35-.56-2.23-1.88-2.23-1.81,0-2.43,1.5-2.43,3.16V362H424Z" transform="translate(-341.38 -218.72)"/><path class="cls-5" d="M431.16,354.42h1.41v-2.37h.76v2.37h1.8v.71h-1.8v4.94c0,.85.18,1.33.91,1.33a2.78,2.78,0,0,0,.79-.09V362a2.85,2.85,0,0,1-.94.14c-1,0-1.52-.49-1.52-1.7v-5.29h-1.41Z" transform="translate(-341.38 -218.72)"/><path class="cls-5" d="M442.15,359.79c0,.75,0,1.93,0,2.22h-.73a12.85,12.85,0,0,1,0-1.32,2.34,2.34,0,0,1-2.45,1.5c-1.09,0-2.49-.42-2.49-2.75v-5h.75v4.84c0,1.11.35,2.19,1.85,2.19,1.7,0,2.34-1,2.34-3.13v-3.9h.76Z" transform="translate(-341.38 -218.72)"/><path class="cls-5" d="M444.63,350.82h.76v1.47h-.76Zm0,3.6h.76V362h-.76Z" transform="translate(-341.38 -218.72)"/><path class="cls-5" d="M446.85,354.42h1.41v-2.37H449v2.37h1.81v.71H449v4.94c0,.85.18,1.33.91,1.33a2.7,2.7,0,0,0,.79-.09V362a2.81,2.81,0,0,1-.94.14c-1,0-1.52-.49-1.52-1.7v-5.29h-1.41Z" transform="translate(-341.38 -218.72)"/><path class="cls-5" d="M452.38,350.82h.75v1.47h-.75Zm0,3.6h.75V362h-.75Z" transform="translate(-341.38 -218.72)"/><path class="cls-5" d="M455.5,354.42c1.23,3.47,2.08,5.84,2.37,6.81h0c.16-.56,1-2.82,2.49-6.81h.8L458.31,362h-.91l-2.7-7.59Z" transform="translate(-341.38 -218.72)"/><path class="cls-5" d="M462.83,358.3c0,2,1,3.18,2.46,3.18a2.14,2.14,0,0,0,2.19-1.43h.77a2.91,2.91,0,0,1-3,2.14c-2.3,0-3.2-2-3.2-3.92,0-2.17,1.08-4,3.29-4s3.09,2,3.09,3.44c0,.21,0,.43,0,.62Zm4.82-.66c0-1.51-.84-2.69-2.33-2.69s-2.27,1.09-2.44,2.69Z" transform="translate(-341.38 -218.72)"/><path class="cls-5" d="M475.27,351.38v6.44c0,2.82,1.59,3.55,3.09,3.55,1.78,0,3.1-.74,3.1-3.55v-6.44h.83v6.39c0,3.33-1.76,4.36-4,4.36s-3.91-1.14-3.91-4.22v-6.53Z" transform="translate(-341.38 -218.72)"/><path class="cls-5" d="M491.08,362l-3.2-4.78h0L484.69,362h-.95l3.62-5.41-3.47-5.22h.95l3,4.54h0l3.09-4.54h1l-3.58,5.16,3.69,5.47Z" transform="translate(-341.38 -218.72)"/><path class="cls-5" d="M492.89,362.78l4.28-11.55h.77l-4.28,11.55Z" transform="translate(-341.38 -218.72)"/><path class="cls-5" d="M501,351.38v6.44c0,2.82,1.59,3.55,3.09,3.55,1.78,0,3.1-.74,3.1-3.55v-6.44H508v6.39c0,3.33-1.76,4.36-4,4.36s-3.92-1.14-3.92-4.22v-6.53Z" transform="translate(-341.38 -218.72)"/><path class="cls-5" d="M511.82,351.38V362H511V351.38Z" transform="translate(-341.38 -218.72)"/><path class="cls-5" d="M514.06,362v-2h.76v2Z" transform="translate(-341.38 -218.72)"/></svg>