<svg id="Layer_1" data-name="Layer 1" xmlns="http://www.w3.org/2000/svg" viewBox="0 0 208.1 151.13"><defs><style>.cls-1,.cls-2,.cls-3,.cls-4{fill:none;stroke-linejoin:round;}.cls-1,.cls-2,.cls-3,.cls-4,.cls-5{stroke:#173357;}.cls-1,.cls-4{stroke-linecap:round;}.cls-1{stroke-width:4px;}.cls-2{stroke-width:3px;}.cls-3,.cls-4{stroke-width:1.5px;}.cls-5{fill:#173357;stroke-miterlimit:10;stroke-width:0.5px;}</style></defs><title>Untitled-6</title><path class="cls-1" d="M448.61,281.28l1.64,16.82a1.62,1.62,0,0,1-2.44,1.55l-17.07-10.24a70.9,70.9,0,0,1-18.68,2.46c-29.42,0-53.27-17.4-53.27-38.87s23.85-38.86,53.27-38.86,53.27,17.4,53.27,38.86C465.33,264.15,458.9,274.19,448.61,281.28Z" transform="translate(-313.01 -212.14)"/><path class="cls-2" d="M424.73,265.07c-1.65,1.38,0,5.63,0,5.63-4.67.12-7.42-5.63-7.42-5.63-24.74-11.68-29.13-26.65-29.13-26.65a54.93,54.93,0,0,1,36.41,14.42s4.12-.41,8.66,3.3c0,0-4.69.29-5.38,3.73Z" transform="translate(-313.01 -212.14)"/><circle class="cls-3" cx="92.83" cy="37.22" r="2.82"/><line class="cls-4" x1="115.65" y1="55.13" x2="122.16" y2="58.56"/><line class="cls-4" x1="117.25" y1="51.94" x2="128.81" y2="57.86"/><line class="cls-4" x1="118.91" y1="48.95" x2="123.43" y2="51.28"/><path class="cls-5" d="M316.29,341.61l-3-10.62h.85c.71,2.55,2.32,8.42,2.57,9.67h0c.2-1,2-6.87,2.69-9.67h.91c.7,2.59,2.4,8.83,2.57,9.65h0c.34-1.5,2.11-7.12,2.84-9.65h.84l-3.25,10.62h-.94c-.7-2.5-2.36-8.65-2.54-9.56h0c-.27,1.38-1.91,6.92-2.67,9.56Z" transform="translate(-313.01 -212.14)"/><path class="cls-5" d="M327.75,337.91c0,2,1,3.17,2.46,3.17a2.13,2.13,0,0,0,2.18-1.42h.78a2.92,2.92,0,0,1-3,2.14c-2.31,0-3.21-2-3.21-3.92,0-2.17,1.08-4,3.3-4s3.08,2,3.08,3.45c0,.21,0,.42,0,.62Zm4.81-.67c0-1.5-.84-2.69-2.32-2.69s-2.28,1.1-2.45,2.69Z" transform="translate(-313.01 -212.14)"/><path class="cls-5" d="M335.26,330.42H336v4.88a2.61,2.61,0,0,1,2.59-1.46c1.8,0,3.12,1.47,3.12,3.81s-1.19,4.15-3.31,4.15a2.36,2.36,0,0,1-2.4-1.38c0,.48,0,1,0,1.19h-.75c0-.86,0-1.73,0-2.59Zm5.66,7.25c0-1.9-.94-3.12-2.38-3.12-1.9,0-2.57,1.29-2.57,3.28,0,1.8.6,3.25,2.48,3.25C340,341.08,340.92,339.81,340.92,337.67Z" transform="translate(-313.01 -212.14)"/><path class="cls-5" d="M343.76,339.52a2,2,0,0,0,2.16,1.58c1.35,0,1.89-.62,1.89-1.47s-.36-1.3-2.06-1.71c-2-.47-2.45-1.06-2.45-2.06s.79-2,2.51-2a2.43,2.43,0,0,1,2.66,2.13h-.76a1.79,1.79,0,0,0-1.93-1.43c-1.32,0-1.7.65-1.7,1.26s.36,1.05,1.87,1.41c2.14.52,2.67,1.22,2.67,2.35,0,1.39-1.13,2.24-2.72,2.24a2.63,2.63,0,0,1-2.91-2.28Z" transform="translate(-313.01 -212.14)"/><path class="cls-5" d="M350.5,330.42h.76v1.48h-.76Zm0,3.6h.76v7.59h-.76Z" transform="translate(-313.01 -212.14)"/><path class="cls-5" d="M352.71,334h1.42v-2.37h.76V334h1.8v.72h-1.8v4.93c0,.85.18,1.34.91,1.34a3.19,3.19,0,0,0,.79-.09v.66a2.61,2.61,0,0,1-.94.14c-1,0-1.52-.49-1.52-1.7v-5.28h-1.42Z" transform="translate(-313.01 -212.14)"/><path class="cls-5" d="M358.32,337.91c0,2,1,3.17,2.46,3.17a2.13,2.13,0,0,0,2.18-1.42h.78a2.92,2.92,0,0,1-3,2.14c-2.31,0-3.21-2-3.21-3.92,0-2.17,1.08-4,3.3-4s3.08,2,3.08,3.45c0,.21,0,.42,0,.62Zm4.81-.67c0-1.5-.84-2.69-2.32-2.69s-2.28,1.1-2.45,2.69Z" transform="translate(-313.01 -212.14)"/><path class="cls-5" d="M366,339.52a2,2,0,0,0,2.16,1.58c1.35,0,1.89-.62,1.89-1.47s-.36-1.3-2.06-1.71c-2-.47-2.44-1.06-2.44-2.06s.79-2,2.5-2a2.42,2.42,0,0,1,2.66,2.13h-.76a1.79,1.79,0,0,0-1.93-1.43c-1.32,0-1.7.65-1.7,1.26s.36,1.05,1.87,1.41c2.14.52,2.67,1.22,2.67,2.35,0,1.39-1.12,2.24-2.72,2.24a2.63,2.63,0,0,1-2.91-2.28Z" transform="translate(-313.01 -212.14)"/><path class="cls-5" d="M382.5,330.42v9c0,.73,0,1.43,0,2.18h-.73c0-.18,0-.89,0-1.27a2.5,2.5,0,0,1-2.55,1.46c-2,0-3.16-1.61-3.16-3.89s1.29-4.07,3.36-4.07c1.51,0,2.12.65,2.35,1.14v-4.56Zm-5.67,7.46c0,2.08,1.08,3.2,2.39,3.2,2,0,2.55-1.38,2.55-3.44s-.47-3.09-2.42-3.09C377.85,334.55,376.83,335.75,376.83,337.88Z" transform="translate(-313.01 -212.14)"/><path class="cls-5" d="M391.13,337.8c0,2.11-1.16,4-3.43,4-2.05,0-3.32-1.69-3.32-4s1.2-4,3.4-4C389.8,333.84,391.13,335.42,391.13,337.8Zm-5.95,0c0,1.81,1,3.26,2.58,3.26s2.57-1.35,2.57-3.26-.91-3.27-2.6-3.27S385.18,336,385.18,337.82Z" transform="translate(-313.01 -212.14)"/><path class="cls-5" d="M393,335.94c0-.67,0-1.31,0-1.92h.74a14.21,14.21,0,0,1,0,1.45,2.48,2.48,0,0,1,2.52-1.63c1.36,0,2.56.76,2.56,2.86v4.91h-.76v-4.79c0-1.35-.57-2.24-1.89-2.24-1.8,0-2.43,1.51-2.43,3.16v3.87H393Z" transform="translate(-313.01 -212.14)"/><path class="cls-5" d="M400.6,334.27l-.07-2.63v-1.22h.79v1.22l-.08,2.63Z" transform="translate(-313.01 -212.14)"/><path class="cls-5" d="M402.94,334h1.41v-2.37h.76V334h1.81v.72h-1.81v4.93c0,.85.18,1.34.91,1.34a3.09,3.09,0,0,0,.79-.09v.66a2.55,2.55,0,0,1-.94.14c-1,0-1.52-.49-1.52-1.7v-5.28h-1.41Z" transform="translate(-313.01 -212.14)"/><path class="cls-5" d="M413.17,330.42v4.88a2.66,2.66,0,0,1,2.51-1.46c1.08,0,2.56.55,2.56,3v4.82h-.76v-4.67c0-1.51-.68-2.36-1.94-2.36-1.5,0-2.37.93-2.37,2.8v4.23h-.76V330.42Z" transform="translate(-313.01 -212.14)"/><path class="cls-5" d="M425.85,340.17a8,8,0,0,0,.11,1.44h-.73a4.84,4.84,0,0,1-.14-1.16,2.51,2.51,0,0,1-2.49,1.35,2.26,2.26,0,0,1-2.52-2.28c0-1.67,1.29-2.43,3.57-2.43h1.44v-.77c0-.76-.23-1.78-2-1.78-1.53,0-1.76.8-1.93,1.43h-.76c.09-.84.61-2.13,2.71-2.13,1.73,0,2.7.73,2.7,2.4Zm-.75-2.43h-1.48c-1.69,0-2.74.44-2.74,1.75a1.59,1.59,0,0,0,1.75,1.61c2.17,0,2.47-1.44,2.47-3.08Z" transform="translate(-313.01 -212.14)"/><path class="cls-5" d="M427.94,334c1.23,3.48,2.08,5.85,2.37,6.82h0c.16-.56,1-2.82,2.49-6.82h.8l-2.87,7.59h-.91l-2.7-7.59Z" transform="translate(-313.01 -212.14)"/><path class="cls-5" d="M435.27,337.91c0,2,1,3.17,2.46,3.17a2.14,2.14,0,0,0,2.19-1.42h.77a2.9,2.9,0,0,1-3,2.14c-2.31,0-3.2-2-3.2-3.92,0-2.17,1.08-4,3.29-4s3.09,2,3.09,3.45c0,.21,0,.42,0,.62Zm4.82-.67c0-1.5-.84-2.69-2.33-2.69s-2.27,1.1-2.44,2.69Z" transform="translate(-313.01 -212.14)"/><path class="cls-5" d="M445.54,334H447v-2.37h.76V334h1.8v.72h-1.8v4.93c0,.85.18,1.34.91,1.34a3.19,3.19,0,0,0,.79-.09v.66a2.63,2.63,0,0,1-1,.14c-1,0-1.51-.49-1.51-1.7v-5.28h-1.41Z" transform="translate(-313.01 -212.14)"/><path class="cls-5" d="M457.12,337.8c0,2.11-1.17,4-3.43,4-2.05,0-3.33-1.69-3.33-4s1.2-4,3.4-4C455.78,333.84,457.12,335.42,457.12,337.8Zm-5.95,0c0,1.81,1,3.26,2.58,3.26s2.56-1.35,2.56-3.26-.91-3.27-2.59-3.27S451.17,336,451.17,337.82Z" transform="translate(-313.01 -212.14)"/><path class="cls-5" d="M463,330.42h.75v4.88a2.63,2.63,0,0,1,2.6-1.46c1.79,0,3.11,1.47,3.11,3.81s-1.18,4.15-3.31,4.15a2.37,2.37,0,0,1-2.4-1.38c0,.48,0,1,0,1.19h-.74c0-.86,0-1.73,0-2.59Zm5.66,7.25c0-1.9-.94-3.12-2.39-3.12-1.89,0-2.56,1.29-2.56,3.28,0,1.8.59,3.25,2.47,3.25C467.67,341.08,468.61,339.81,468.61,337.67Z" transform="translate(-313.01 -212.14)"/><path class="cls-5" d="M471.55,337.91c0,2,1,3.17,2.46,3.17a2.15,2.15,0,0,0,2.19-1.42H477a2.91,2.91,0,0,1-3,2.14c-2.31,0-3.2-2-3.2-3.92,0-2.17,1.08-4,3.29-4s3.08,2,3.08,3.45c0,.21,0,.42,0,.62Zm4.81-.67c0-1.5-.83-2.69-2.32-2.69s-2.28,1.1-2.44,2.69Z" transform="translate(-313.01 -212.14)"/><path class="cls-5" d="M483,339.52a2,2,0,0,0,2.16,1.58c1.35,0,1.89-.62,1.89-1.47s-.36-1.3-2.06-1.71c-2-.47-2.44-1.06-2.44-2.06s.79-2,2.5-2a2.42,2.42,0,0,1,2.66,2.13h-.76a1.79,1.79,0,0,0-1.93-1.43c-1.32,0-1.7.65-1.7,1.26s.36,1.05,1.87,1.41c2.14.52,2.67,1.22,2.67,2.35,0,1.39-1.12,2.24-2.72,2.24a2.63,2.63,0,0,1-2.91-2.28Z" transform="translate(-313.01 -212.14)"/><path class="cls-5" d="M488.51,334h1.41v-2.37h.76V334h1.8v.72h-1.8v4.93c0,.85.18,1.34.91,1.34a3.14,3.14,0,0,0,.79-.09v.66a2.58,2.58,0,0,1-.94.14c-1,0-1.52-.49-1.52-1.7v-5.28h-1.41Z" transform="translate(-313.01 -212.14)"/><path class="cls-5" d="M499.24,340.17a8,8,0,0,0,.11,1.44h-.73a4.84,4.84,0,0,1-.14-1.16A2.51,2.51,0,0,1,496,341.8a2.26,2.26,0,0,1-2.52-2.28c0-1.67,1.29-2.43,3.57-2.43h1.44v-.77c0-.76-.23-1.78-2-1.78-1.53,0-1.76.8-1.93,1.43h-.76c.1-.84.61-2.13,2.71-2.13,1.73,0,2.7.73,2.7,2.4Zm-.74-2.43H497c-1.69,0-2.74.44-2.74,1.75A1.59,1.59,0,0,0,496,341.1c2.17,0,2.48-1.44,2.48-3.08Z" transform="translate(-313.01 -212.14)"/><path class="cls-5" d="M500.53,334h1.41v-2.37h.76V334h1.81v.72H502.7v4.93c0,.85.18,1.34.91,1.34a3.09,3.09,0,0,0,.79-.09v.66a2.58,2.58,0,0,1-.94.14c-1,0-1.52-.49-1.52-1.7v-5.28h-1.41Z" transform="translate(-313.01 -212.14)"/><path class="cls-5" d="M506.05,330.42h.76v1.48h-.76Zm0,3.6h.76v7.59h-.76Z" transform="translate(-313.01 -212.14)"/><path class="cls-5" d="M514.89,339.38a2.93,2.93,0,0,1-2.95,2.42c-1.89,0-3.25-1.42-3.25-3.95,0-2.08,1.11-4,3.35-4a2.72,2.72,0,0,1,2.85,2.43h-.78a2,2,0,0,0-2.09-1.72c-1.61,0-2.52,1.37-2.52,3.27s.85,3.26,2.44,3.26a2.14,2.14,0,0,0,2.17-1.7Z" transform="translate(-313.01 -212.14)"/><path class="cls-5" d="M515.83,343.34a9.58,9.58,0,0,0,1.06-3.67h.76a9.48,9.48,0,0,1-1.14,3.67Z" transform="translate(-313.01 -212.14)"/><path class="cls-5" d="M315.79,349.2v10.63H315V349.2Z" transform="translate(-313.01 -212.14)"/><path class="cls-5" d="M322.47,359.83V348.64h.76v11.19Z" transform="translate(-313.01 -212.14)"/><path class="cls-5" d="M331.87,356c0,2.11-1.17,4-3.43,4-2.05,0-3.33-1.68-3.33-4s1.2-4,3.4-4C330.53,352.06,331.87,353.63,331.87,356Zm-5.95,0c0,1.81,1,3.27,2.58,3.27s2.56-1.35,2.56-3.27-.91-3.26-2.59-3.26S325.92,354.21,325.92,356Z" transform="translate(-313.01 -212.14)"/><path class="cls-5" d="M333.64,352.24c1.23,3.47,2.08,5.84,2.37,6.81h0c.16-.56,1-2.82,2.49-6.81h.8l-2.87,7.59h-.91l-2.7-7.59Z" transform="translate(-313.01 -212.14)"/><path class="cls-5" d="M341,356.13c0,1.95,1,3.17,2.46,3.17a2.14,2.14,0,0,0,2.19-1.43h.77a2.9,2.9,0,0,1-3,2.14c-2.3,0-3.2-2-3.2-3.92,0-2.17,1.08-4,3.29-4s3.09,2,3.09,3.44c0,.21,0,.43,0,.63Zm4.82-.67c0-1.51-.84-2.69-2.33-2.69s-2.27,1.09-2.44,2.69Z" transform="translate(-313.01 -212.14)"/><path class="cls-5" d="M352.37,354.2c0-.66,0-1.37,0-2h.74c0,.26,0,.91,0,1.35a2.38,2.38,0,0,1,2.28-1.53,2.15,2.15,0,0,1,2.2,1.5,2.58,2.58,0,0,1,2.48-1.5c1.17,0,2.38.66,2.38,2.77v5h-.76v-4.91c0-1-.36-2.12-1.78-2.12s-2.14,1.18-2.14,2.66v4.37h-.74v-4.89c0-1.11-.33-2.14-1.73-2.14s-2.19,1.31-2.19,2.85v4.18h-.76Z" transform="translate(-313.01 -212.14)"/><path class="cls-5" d="M370.07,358.39a8.12,8.12,0,0,0,.11,1.44h-.73a5,5,0,0,1-.14-1.17,2.48,2.48,0,0,1-2.49,1.35,2.26,2.26,0,0,1-2.52-2.28c0-1.67,1.29-2.43,3.57-2.43h1.44v-.77c0-.76-.22-1.78-1.95-1.78-1.54,0-1.77.81-1.93,1.43h-.76c.09-.83.61-2.12,2.7-2.12,1.73,0,2.7.72,2.7,2.39Zm-.74-2.43h-1.49c-1.68,0-2.73.44-2.73,1.74a1.58,1.58,0,0,0,1.74,1.61c2.18,0,2.48-1.44,2.48-3.08Z" transform="translate(-313.01 -212.14)"/><path class="cls-5" d="M373.34,356.16c.7-.75,2.82-2.91,3.84-3.92h1l-3,3,3.39,4.57h-.94l-3-4.08L373.34,357v2.87h-.76V348.64h.76Z" transform="translate(-313.01 -212.14)"/><path class="cls-5" d="M379.8,348.64h.76v1.47h-.76Zm0,3.6h.76v7.59h-.76Z" transform="translate(-313.01 -212.14)"/><path class="cls-5" d="M383.05,354.15c0-.67,0-1.31,0-1.91h.74c0,.24,0,1.23,0,1.44a2.48,2.48,0,0,1,2.52-1.62c1.35,0,2.55.75,2.55,2.85v4.92h-.76V355c0-1.35-.56-2.23-1.88-2.23-1.81,0-2.43,1.5-2.43,3.16v3.87h-.76Z" transform="translate(-313.01 -212.14)"/><path class="cls-5" d="M397.17,359.31c0,2.43-1.08,3.71-3.28,3.71a2.68,2.68,0,0,1-3-2.27h.78a2.1,2.1,0,0,0,2.23,1.55c2,0,2.52-1.27,2.52-3.2v-.79a2.4,2.4,0,0,1-2.54,1.52c-1.77,0-3.14-1.44-3.14-3.8,0-2.55,1.46-4,3.25-4,1.55,0,2.22.72,2.43,1.33,0-.44,0-1,.05-1.15h.71c0,.27,0,1.47,0,2.2Zm-5.6-3.31c0,1.81.95,3.12,2.41,3.12,1.9,0,2.48-1.26,2.48-3.24s-.61-3.11-2.43-3.11S391.57,354.27,391.57,356Z" transform="translate(-313.01 -212.14)"/><path class="cls-5" d="M404.36,358.71v4.16h-.76v-8.76c0-.63,0-1.3,0-1.87h.74c0,.29,0,.74,0,1.36a2.79,2.79,0,0,1,2.67-1.54c1.8,0,3,1.5,3,3.78,0,2.73-1.46,4.17-3.29,4.17A2.49,2.49,0,0,1,404.36,358.71Zm4.91-2.84c0-1.76-.85-3.09-2.36-3.09-1.83,0-2.59,1.16-2.59,3.22s.59,3.3,2.49,3.3C408.39,359.3,409.27,358,409.27,355.87Z" transform="translate(-313.01 -212.14)"/><path class="cls-5" d="M417.17,358.39a8.12,8.12,0,0,0,.11,1.44h-.73a5.18,5.18,0,0,1-.13-1.17,2.51,2.51,0,0,1-2.49,1.35,2.27,2.27,0,0,1-2.53-2.28c0-1.67,1.3-2.43,3.57-2.43h1.45v-.77c0-.76-.23-1.78-2-1.78-1.54,0-1.76.81-1.93,1.43h-.76c.09-.83.61-2.12,2.7-2.12,1.73,0,2.7.72,2.7,2.39Zm-.74-2.43h-1.49c-1.68,0-2.73.44-2.73,1.74a1.58,1.58,0,0,0,1.75,1.61c2.17,0,2.47-1.44,2.47-3.08Z" transform="translate(-313.01 -212.14)"/><path class="cls-5" d="M425.48,359.31c0,2.43-1.08,3.71-3.28,3.71a2.67,2.67,0,0,1-3-2.27H420a2.1,2.1,0,0,0,2.23,1.55c2,0,2.52-1.27,2.52-3.2v-.79a2.41,2.41,0,0,1-2.54,1.52c-1.77,0-3.14-1.44-3.14-3.8,0-2.55,1.46-4,3.25-4,1.55,0,2.22.72,2.43,1.33,0-.44,0-1,0-1.15h.72c0,.27,0,1.47,0,2.2Zm-5.6-3.31c0,1.81.95,3.12,2.41,3.12,1.9,0,2.47-1.26,2.47-3.24s-.6-3.11-2.43-3.11S419.88,354.27,419.88,356Z" transform="translate(-313.01 -212.14)"/><path class="cls-5" d="M428.13,356.13c0,1.95,1,3.17,2.46,3.17a2.15,2.15,0,0,0,2.19-1.43h.77a2.91,2.91,0,0,1-3,2.14c-2.31,0-3.2-2-3.2-3.92,0-2.17,1.08-4,3.29-4s3.08,2,3.08,3.44c0,.21,0,.43,0,.63Zm4.82-.67c0-1.51-.84-2.69-2.33-2.69s-2.28,1.09-2.44,2.69Z" transform="translate(-313.01 -212.14)"/><path class="cls-5" d="M435.77,357.73a2,2,0,0,0,2.15,1.58c1.35,0,1.9-.62,1.9-1.47s-.36-1.29-2.06-1.7c-2-.47-2.45-1.06-2.45-2.06s.79-2,2.51-2a2.41,2.41,0,0,1,2.65,2.12h-.76a1.78,1.78,0,0,0-1.92-1.43c-1.32,0-1.7.66-1.7,1.26s.36,1.05,1.86,1.42c2.14.51,2.68,1.21,2.68,2.35,0,1.38-1.13,2.23-2.72,2.23a2.65,2.65,0,0,1-2.92-2.28Z" transform="translate(-313.01 -212.14)"/><path class="cls-5" d="M452,357.6a2.92,2.92,0,0,1-3,2.41c-1.89,0-3.24-1.41-3.24-3.95,0-2.08,1.1-4,3.34-4a2.71,2.71,0,0,1,2.85,2.42h-.77a2.05,2.05,0,0,0-2.1-1.71c-1.61,0-2.52,1.37-2.52,3.26s.85,3.27,2.44,3.27a2.16,2.16,0,0,0,2.18-1.7Z" transform="translate(-313.01 -212.14)"/><path class="cls-5" d="M460,356c0,2.11-1.17,4-3.44,4-2,0-3.32-1.68-3.32-4s1.2-4,3.4-4C458.69,352.06,460,353.63,460,356Zm-6,0c0,1.81,1,3.27,2.58,3.27s2.57-1.35,2.57-3.27-.91-3.26-2.6-3.26S454.07,354.21,454.07,356Z" transform="translate(-313.01 -212.14)"/><path class="cls-5" d="M461.91,354.2c0-.66,0-1.37,0-2h.74c0,.26.05.91,0,1.35a2.35,2.35,0,0,1,2.27-1.53,2.15,2.15,0,0,1,2.2,1.5,2.58,2.58,0,0,1,2.48-1.5c1.17,0,2.38.66,2.38,2.77v5h-.76v-4.91c0-1-.36-2.12-1.77-2.12s-2.14,1.18-2.14,2.66v4.37h-.75v-4.89c0-1.11-.33-2.14-1.73-2.14s-2.18,1.31-2.18,2.85v4.18h-.76Z" transform="translate(-313.01 -212.14)"/><path class="cls-5" d="M474.66,356.13c0,1.95,1,3.17,2.46,3.17a2.14,2.14,0,0,0,2.18-1.43h.78a2.92,2.92,0,0,1-3,2.14c-2.31,0-3.21-2-3.21-3.92,0-2.17,1.08-4,3.3-4s3.08,2,3.08,3.44c0,.21,0,.43,0,.63Zm4.81-.67c0-1.51-.84-2.69-2.32-2.69s-2.28,1.09-2.45,2.69Z" transform="translate(-313.01 -212.14)"/><path class="cls-5" d="M484.92,352.24h1.41v-2.37h.76v2.37h1.8V353h-1.8v4.94c0,.85.18,1.33.91,1.33a2.7,2.7,0,0,0,.79-.09v.67a2.58,2.58,0,0,1-.94.14c-1,0-1.52-.49-1.52-1.7V353h-1.41Z" transform="translate(-313.01 -212.14)"/><path class="cls-5" d="M496.5,356c0,2.11-1.17,4-3.43,4-2.05,0-3.33-1.68-3.33-4s1.2-4,3.41-4C495.16,352.06,496.5,353.63,496.5,356Zm-5.95,0c0,1.81,1,3.27,2.58,3.27S495.7,358,495.7,356s-.91-3.26-2.6-3.26S490.55,354.21,490.55,356Z" transform="translate(-313.01 -212.14)"/><path class="cls-5" d="M502.33,359.83V348.64h.76v11.19Z" transform="translate(-313.01 -212.14)"/><path class="cls-5" d="M505.58,348.64h.75v1.47h-.75Zm0,3.6h.75v7.59h-.75Z" transform="translate(-313.01 -212.14)"/><path class="cls-5" d="M509.2,359.83V353h-1.3v-.71h1.3v-1.08c0-1.28.37-2.67,2.07-2.67a2.82,2.82,0,0,1,.74.1v.73a3.75,3.75,0,0,0-.82-.09c-.89,0-1.23.64-1.23,2v1.05h1.66V353H510v6.88Z" transform="translate(-313.01 -212.14)"/><path class="cls-5" d="M513,356.13c0,1.95,1,3.17,2.46,3.17a2.14,2.14,0,0,0,2.19-1.43h.77a2.91,2.91,0,0,1-3,2.14c-2.31,0-3.2-2-3.2-3.92,0-2.17,1.08-4,3.29-4s3.08,2,3.08,3.44c0,.21,0,.43,0,.63Zm4.82-.67c0-1.51-.84-2.69-2.33-2.69s-2.27,1.09-2.44,2.69Z" transform="translate(-313.01 -212.14)"/><path class="cls-5" d="M520.1,359.83v-2h.76v2Z" transform="translate(-313.01 -212.14)"/></svg>