<svg id="Layer_1" data-name="Layer 1" xmlns="http://www.w3.org/2000/svg" viewBox="0 0 736.91 397.13"><defs><style>.cls-1{fill:#a7a9ac;}.cls-2{fill:#d7df23;}.cls-3{fill:#c0c920;}.cls-4{fill:#00863e;}.cls-5{fill:#007233;}.cls-6{fill:#797a7d;}.cls-7{fill:#939598;}.cls-8{fill:#58595b;}.cls-9{fill:#5c5d60;}.cls-10,.cls-11{fill:#fff;}.cls-11,.cls-13,.cls-14,.cls-15,.cls-18{stroke:#fff;}.cls-11,.cls-12,.cls-13,.cls-14,.cls-15,.cls-18,.cls-19,.cls-20,.cls-21{stroke-miterlimit:10;}.cls-11{stroke-width:0.5px;}.cls-12{fill:#b19aca;stroke:#b19aca;}.cls-13,.cls-14,.cls-15,.cls-18,.cls-20,.cls-21{fill:none;}.cls-13,.cls-14,.cls-18,.cls-19,.cls-20{stroke-width:2px;}.cls-14,.cls-18,.cls-19{stroke-linecap:round;}.cls-16{fill:#006899;}.cls-17{fill:#b3b5b8;}.cls-18{stroke-dasharray:6;}.cls-19{fill:#ad6480;}.cls-19,.cls-20,.cls-21{stroke:#ad6480;}.cls-22{fill:#c49a6c;}.cls-23{fill:#7b8aa2;}.cls-24{fill:#9cafcc;}.cls-25{fill:#8697b1;}.cls-26{fill:#717f95;}.cls-27{fill:#a28159;}.cls-28{fill:#754c29;}.cls-29{fill:#644120;}.cls-30{fill:#ad6e6c;}.cls-31{fill:#925b5b;}</style></defs><title>Untitled-2</title><path class="cls-1" d="M761.42,267.5s25,20.95,0,44.51,0,43.52,0,43.52v-88Z" transform="translate(-52.89 -98.82)"/><path class="cls-1" d="M760.83,329.89" transform="translate(-52.89 -98.82)"/><path class="cls-1" d="M757.9,284.1c-17.19-23,.13-44.16.13-44.16Z" transform="translate(-52.89 -98.82)"/><ellipse class="cls-2" cx="98.74" cy="302.04" rx="53.56" ry="74.22"/><rect class="cls-2" x="59.04" y="223.3" width="78.14" height="21.65" rx="6.23"/><polygon class="cls-2" points="123.31 378.93 74.1 378.93 76.35 369.51 121.06 369.51 123.31 378.93"/><path class="cls-3" d="M176.41,322.12h8.09a6.36,6.36,0,0,1,5.56,6v9.75a6.15,6.15,0,0,1-5.95,5.93H153.75S174.52,339,176.41,322.12Z" transform="translate(-52.89 -98.82)"/><path class="cls-3" d="M171.91,342.66l13.79,0c11.9,13.62,19.49,34.22,19.49,57.28,0,29.94-12.79,56.63-31.22,68.37H148.06S186,434.3,171.91,342.66Z" transform="translate(-52.89 -98.82)"/><path class="cls-3" d="M160,468.33H174l2.24,9.42H151.33S158.22,474.89,160,468.33Z" transform="translate(-52.89 -98.82)"/><path class="cls-4" d="M123.75,322.12s-4.64-25-28.9-26.61c0,0,15.44-7.25,29.3,4.1,0,0-4.09-18-18-20.8,0,0,12.61-3.15,23,8.19,0,0-1.9-26.15-27.73-32.76,0,0,26.15-1.89,35.92,23.63,0,0,.63-19.64-5-28.57,0,0,8.82,4.51,12.91,23.15a30.72,30.72,0,0,0,8.83-16.32s3.26,4.72-1.15,24.57c0,0,5.44-16.7,17.42-22.37,0,0-12.18,16.09-7.77,35,0,0,2.84-23.33,29.62-35,0,0-21.11,19.22-18.9,42.54,0,0,7.24-16.77,24.26-15.16,0,0-15.31,6.21-15.76,21.77,0,0,12-6.12,23.32-3.29,0,0-21.22,4.2-26.36,17.93Z" transform="translate(-52.89 -98.82)"/><path class="cls-5" d="M132.72,322.12s-4.2-13-10.29-17.16c0,0,9.66,1.89,11.76,4.41s-2.52-12.81-5.88-16.8c0,0,7.56,3.36,10.5,8.4,0,0,2.1-8.26-1.89-15.26,0,0,4.83,3.92,5.88,7.91s-.42-2.59,2.32-7.91l2.73-5.32s-.76,8.82,2.14,12.81c0,0,2.48-7.77,6.47-11.34,0,0-2.71,13.65,3.25,20.55,0,0,2.63,1.08,5.36-3.75a33.9,33.9,0,0,0,3.57-9.88s-.63,16.39,1.05,18.28,3.57-4.69,7.77-5.81c0,0-2.31,6.65-.84,9.8,0,0,3.36-.63,4-.63s-5,5.54-4.2,11.7Z" transform="translate(-52.89 -98.82)"/><path class="cls-6" d="M335.43,374H450.66a3.75,3.75,0,0,1,3.75,3.75v6a0,0,0,0,1,0,0H331.68a0,0,0,0,1,0,0v-6a3.75,3.75,0,0,1,3.75-3.75Z"/><rect class="cls-7" x="133.82" width="518.45" height="326.71" rx="13.56"/><rect class="cls-8" x="163.65" y="21.57" width="462.97" height="286.01" rx="24.62"/><path class="cls-6" d="M445.94,425.53v47.24h28.19s-12.15-24.2,0-47.24Z" transform="translate(-52.89 -98.82)"/><path class="cls-6" d="M445.94,425.53v47.24h-28.2s12.15-24.2,0-47.24Z" transform="translate(-52.89 -98.82)"/><path class="cls-9" d="M417.74,425.53h56.39a25.4,25.4,0,0,0-2.83,6.56l-48.17,15.32A61.32,61.32,0,0,0,417.74,425.53Z" transform="translate(-52.89 -98.82)"/><text x="-52.89" y="-98.82"/><rect class="cls-10" x="180.72" y="40.14" width="389.91" height="15.98" rx="2.54"/><rect class="cls-10" x="579.66" y="39.27" width="17.72" height="17.72" rx="2.54"/><path class="cls-11" d="M242,175.77h2v11.5h15.83v-11.5h2v26.39h-2v-13H244v13h-2Z" transform="translate(-52.89 -98.82)"/><path class="cls-11" d="M269.1,193c0,4.86,2.49,7.88,6.11,7.88a5.31,5.31,0,0,0,5.43-3.55h1.92a7.23,7.23,0,0,1-7.43,5.32c-5.73,0-7.95-4.94-7.95-9.73,0-5.39,2.67-10,8.18-10,5.8,0,7.65,5,7.65,8.56,0,.53,0,1.06,0,1.55Zm11.95-1.66c0-3.73-2.07-6.67-5.77-6.67-3.88,0-5.65,2.71-6.07,6.67Z" transform="translate(-52.89 -98.82)"/><path class="cls-11" d="M287.76,202.16V174.37h1.89v27.79Z" transform="translate(-52.89 -98.82)"/><path class="cls-11" d="M295.83,202.16V174.37h1.88v27.79Z" transform="translate(-52.89 -98.82)"/><path class="cls-11" d="M319.17,192.69c0,5.25-2.91,9.92-8.52,9.92-5.09,0-8.26-4.18-8.26-9.88,0-5.39,3-9.88,8.44-9.88C315.85,182.85,319.17,186.77,319.17,192.69Zm-14.78,0c0,4.49,2.41,8.11,6.41,8.11s6.37-3.36,6.37-8.11c0-4.45-2.26-8.1-6.45-8.1S304.39,188.21,304.39,192.73Z" transform="translate(-52.89 -98.82)"/><path class="cls-11" d="M320.79,206.46a24.1,24.1,0,0,0,2.64-9.13h1.88a23.54,23.54,0,0,1-2.83,9.13Z" transform="translate(-52.89 -98.82)"/><path class="cls-11" d="M342.62,175.77v26.39h-2V175.77Z" transform="translate(-52.89 -98.82)"/><path class="cls-11" d="M347.86,183.49a38,38,0,0,0,1.69-9.12h1.93a37.72,37.72,0,0,1-2,9.12Z" transform="translate(-52.89 -98.82)"/><path class="cls-11" d="M354.76,188.17c0-1.62,0-3.39,0-4.86h1.85c0,.64.11,2.26.07,3.35a5.91,5.91,0,0,1,5.66-3.81,5.36,5.36,0,0,1,5.47,3.74,6.41,6.41,0,0,1,6.14-3.74c2.9,0,5.92,1.66,5.92,6.9v12.41H378V190c0-2.53-.91-5.28-4.42-5.28s-5.31,2.94-5.31,6.6v10.86h-1.85V190c0-2.75-.83-5.32-4.3-5.32-3.66,0-5.43,3.24-5.43,7.09v10.37h-1.88Z" transform="translate(-52.89 -98.82)"/><path class="cls-11" d="M238.68,223v23.35h-1.8V223Z" transform="translate(-52.89 -98.82)"/><path class="cls-11" d="M243.32,229.81a34.35,34.35,0,0,0,1.5-8.08h1.7a33.62,33.62,0,0,1-1.73,8.08Z" transform="translate(-52.89 -98.82)"/><path class="cls-11" d="M249.42,233.94c0-1.43,0-3,0-4.3H251c0,.57.1,2,.07,3a5.21,5.21,0,0,1,5-3.37,4.74,4.74,0,0,1,4.84,3.3,5.68,5.68,0,0,1,5.44-3.3c2.56,0,5.23,1.47,5.23,6.1v11h-1.66V235.54c0-2.23-.81-4.67-3.91-4.67s-4.7,2.6-4.7,5.84v9.61h-1.64V235.58c0-2.44-.73-4.71-3.8-4.71-3.23,0-4.8,2.87-4.8,6.27v9.18h-1.67Z" transform="translate(-52.89 -98.82)"/><path class="cls-11" d="M297.18,243.15a18.93,18.93,0,0,0,.24,3.17h-1.61a11.42,11.42,0,0,1-.3-2.57c-.56,1.23-2,3-5.47,3-3.86,0-5.53-2.51-5.53-5,0-3.67,2.83-5.33,7.84-5.33h3.16v-1.7c0-1.67-.5-3.91-4.3-3.91-3.37,0-3.87,1.77-4.23,3.14h-1.67c.2-1.84,1.33-4.67,5.94-4.67,3.8,0,5.93,1.6,5.93,5.27Zm-1.63-5.34h-3.27c-3.7,0-6,1-6,3.84,0,2.1,1.5,3.53,3.83,3.53,4.77,0,5.44-3.17,5.44-6.77Z" transform="translate(-52.89 -98.82)"/><path class="cls-11" d="M311.79,246.32V231.21h-2.87v-1.57h2.87v-2.37c0-2.8.8-5.87,4.54-5.87a6.35,6.35,0,0,1,1.63.23v1.6a8.49,8.49,0,0,0-1.8-.2c-2,0-2.7,1.41-2.7,4.31v2.3h3.63v1.57h-3.63v15.11Z" transform="translate(-52.89 -98.82)"/><path class="cls-11" d="M332.33,241.45c0,1.63,0,4.23,0,4.87h-1.6a26.17,26.17,0,0,1-.1-2.91c-.7,2-2.4,3.31-5.37,3.31-2.4,0-5.47-.94-5.47-6v-11h1.63v10.64c0,2.43.77,4.8,4.07,4.8,3.74,0,5.14-2.1,5.14-6.87v-8.57h1.66Z" transform="translate(-52.89 -98.82)"/><path class="cls-11" d="M337.8,246.32V221.73h1.67v24.59Z" transform="translate(-52.89 -98.82)"/><path class="cls-11" d="M344.94,246.32V221.73h1.67v24.59Z" transform="translate(-52.89 -98.82)"/><path class="cls-11" d="M359.52,237v1.63h-8.41V237Z" transform="translate(-52.89 -98.82)"/><path class="cls-11" d="M364.25,241.71a4.42,4.42,0,0,0,4.74,3.47c3,0,4.17-1.37,4.17-3.23s-.8-2.84-4.54-3.74c-4.3-1-5.37-2.33-5.37-4.54s1.73-4.43,5.5-4.43,5.57,2.3,5.84,4.67h-1.67a3.93,3.93,0,0,0-4.23-3.14c-2.9,0-3.74,1.44-3.74,2.77,0,1.54.8,2.3,4.1,3.1,4.71,1.14,5.87,2.67,5.87,5.17,0,3-2.46,4.91-6,4.91-3.8,0-5.93-2-6.4-5Z" transform="translate(-52.89 -98.82)"/><path class="cls-11" d="M376.46,229.64h3.1v-5.2h1.67v5.2h4v1.57h-4v10.84c0,1.86.4,2.93,2,2.93a6.14,6.14,0,0,0,1.73-.2v1.47a5.89,5.89,0,0,1-2.07.3c-2.13,0-3.33-1.07-3.33-3.74v-11.6h-3.1Z" transform="translate(-52.89 -98.82)"/><path class="cls-11" d="M400,243.15a19.24,19.24,0,0,0,.23,3.17h-1.6a11.42,11.42,0,0,1-.3-2.57c-.57,1.23-2,3-5.47,3-3.87,0-5.54-2.51-5.54-5,0-3.67,2.84-5.33,7.84-5.33h3.17v-1.7c0-1.67-.5-3.91-4.3-3.91-3.37,0-3.87,1.77-4.24,3.14h-1.67c.2-1.84,1.34-4.67,5.94-4.67,3.8,0,5.94,1.6,5.94,5.27Zm-1.64-5.34h-3.27c-3.7,0-6,1-6,3.84,0,2.1,1.5,3.53,3.84,3.53,4.77,0,5.43-3.17,5.43-6.77Z" transform="translate(-52.89 -98.82)"/><path class="cls-11" d="M417.81,241.41c-.8,2.94-2.73,5.31-6.47,5.31-4.17,0-7.13-3.11-7.13-8.68,0-4.57,2.43-8.8,7.33-8.8a6,6,0,0,1,6.27,5.34h-1.7a4.5,4.5,0,0,0-4.6-3.77c-3.54,0-5.54,3-5.54,7.17,0,4,1.87,7.17,5.37,7.17,2.44,0,3.91-1.24,4.77-3.74Z" transform="translate(-52.89 -98.82)"/><path class="cls-11" d="M423.35,238.24c1.53-1.63,6.2-6.37,8.44-8.6h2.13l-6.6,6.64,7.44,10h-2.07l-6.57-9L423.35,240v6.31h-1.67V221.73h1.67Z" transform="translate(-52.89 -98.82)"/><path class="cls-11" d="M446,229.64c2.47,8.6,3.9,13.54,4.17,15h0c.27-1.34,1.94-6.57,4.54-15h1.8c3.1,10.31,4,13.27,4.34,14.57h0c.47-1.83,1.23-4.33,4.3-14.57H467l-5.27,16.68H459.9c-1.8-5.91-4-13.15-4.3-14.68h0c-.34,1.63-2.24,7.61-4.4,14.68h-2l-4.9-16.68Z" transform="translate(-52.89 -98.82)"/><path class="cls-11" d="M470.81,238.18c0,4.3,2.2,7,5.4,7A4.7,4.7,0,0,0,481,242h1.7a6.4,6.4,0,0,1-6.57,4.71c-5.07,0-7-4.37-7-8.61,0-4.77,2.37-8.87,7.24-8.87,5.13,0,6.77,4.43,6.77,7.57,0,.47,0,.93,0,1.37Zm10.57-1.47c0-3.3-1.83-5.9-5.1-5.9-3.44,0-5,2.4-5.37,5.9Z" transform="translate(-52.89 -98.82)"/><path class="cls-11" d="M487.32,221.73H489v10.71c.8-1.67,2.43-3.2,5.7-3.2,3.94,0,6.84,3.23,6.84,8.37s-2.6,9.11-7.27,9.11c-2.81,0-4.41-1.14-5.27-3,0,1.07,0,2.17-.07,2.64h-1.63c0-1.9,0-3.81,0-5.71Zm12.44,15.91c0-4.17-2.07-6.83-5.24-6.83-4.17,0-5.63,2.83-5.63,7.2,0,3.94,1.3,7.14,5.43,7.14C497.69,245.15,499.76,242.35,499.76,237.64Z" transform="translate(-52.89 -98.82)"/><path class="cls-11" d="M527.21,221.73v19.78c0,1.6,0,3.14,0,4.81h-1.6c-.07-.4-.1-2-.1-2.81-.83,2-2.7,3.21-5.6,3.21-4.34,0-6.94-3.54-6.94-8.54s2.83-8.94,7.37-8.94c3.34,0,4.67,1.43,5.17,2.5v-10Zm-12.44,16.38c0,4.57,2.36,7,5.23,7,4.41,0,5.61-3,5.61-7.57,0-4.31-1-6.77-5.31-6.77C517,230.81,514.77,233.44,514.77,238.11Z" transform="translate(-52.89 -98.82)"/><path class="cls-11" d="M533,238.18c0,4.3,2.2,7,5.41,7a4.7,4.7,0,0,0,4.8-3.14H545a6.4,6.4,0,0,1-6.57,4.71c-5.07,0-7-4.37-7-8.61,0-4.77,2.37-8.87,7.24-8.87,5.14,0,6.77,4.43,6.77,7.57,0,.47,0,.93,0,1.37Zm10.58-1.47c0-3.3-1.84-5.9-5.11-5.9-3.43,0-5,2.4-5.37,5.9Z" transform="translate(-52.89 -98.82)"/><path class="cls-11" d="M549.49,229.64c2.7,7.64,4.56,12.84,5.2,15h0c.37-1.24,2.24-6.21,5.47-15H562l-6.3,16.68h-2l-5.93-16.68Z" transform="translate(-52.89 -98.82)"/><path class="cls-11" d="M565.59,238.18c0,4.3,2.21,7,5.41,7a4.7,4.7,0,0,0,4.8-3.14h1.7a6.4,6.4,0,0,1-6.57,4.71c-5.07,0-7-4.37-7-8.61,0-4.77,2.37-8.87,7.24-8.87,5.14,0,6.77,4.43,6.77,7.57,0,.47,0,.93,0,1.37Zm10.58-1.47c0-3.3-1.84-5.9-5.11-5.9-3.43,0-5,2.4-5.37,5.9Z" transform="translate(-52.89 -98.82)"/><path class="cls-11" d="M582.1,246.32V221.73h1.67v24.59Z" transform="translate(-52.89 -98.82)"/><path class="cls-11" d="M602.75,237.94c0,4.64-2.57,8.78-7.54,8.78-4.5,0-7.3-3.71-7.3-8.74,0-4.77,2.63-8.74,7.47-8.74C599.81,229.24,602.75,232.71,602.75,237.94Zm-13.08,0c0,4,2.14,7.17,5.67,7.17s5.64-3,5.64-7.17c0-3.94-2-7.17-5.7-7.17S589.67,234,589.67,238Z" transform="translate(-52.89 -98.82)"/><path class="cls-11" d="M608.55,243.85V253h-1.67V233.74c0-1.37,0-2.83,0-4.1h1.63c.07.63.07,1.63.07,3a6.12,6.12,0,0,1,5.87-3.4c3.94,0,6.67,3.3,6.67,8.3,0,6-3.2,9.18-7.24,9.18C610.92,246.72,609.39,245.42,608.55,243.85Zm10.78-6.24c0-3.87-1.87-6.77-5.17-6.77-4,0-5.71,2.53-5.71,7.07s1.3,7.24,5.47,7.24C617.39,245.15,619.33,242.21,619.33,237.61Z" transform="translate(-52.89 -98.82)"/><path class="cls-11" d="M625.83,238.18c0,4.3,2.2,7,5.4,7A4.69,4.69,0,0,0,636,242h1.7a6.39,6.39,0,0,1-6.57,4.71c-5.07,0-7-4.37-7-8.61,0-4.77,2.36-8.87,7.23-8.87,5.14,0,6.77,4.43,6.77,7.57,0,.47,0,.93,0,1.37Zm10.57-1.47c0-3.3-1.83-5.9-5.1-5.9-3.44,0-5,2.4-5.37,5.9Z" transform="translate(-52.89 -98.82)"/><path class="cls-11" d="M642.2,234.17c0-2.8,0-4,0-4.53h1.63c0,.53.07,1.6.07,3.73a6.31,6.31,0,0,1,5.8-4.13V231c-3.46.23-5.8,2.63-5.8,6.6v8.68H642.2Z" transform="translate(-52.89 -98.82)"/><path class="cls-12" d="M398.28,178.48h-8.89v-1.9h19.9v1.9h-8.93v24.59h-2.08Z" transform="translate(-52.89 -98.82)"/><path class="cls-12" d="M421.63,199.48a20.7,20.7,0,0,0,.27,3.59h-1.82a12.67,12.67,0,0,1-.34-2.91c-.64,1.4-2.31,3.37-6.21,3.37-4.39,0-6.28-2.84-6.28-5.68,0-4.16,3.22-6,8.9-6h3.59v-1.93c0-1.9-.57-4.43-4.88-4.43-3.82,0-4.39,2-4.81,3.56h-1.89c.23-2.09,1.51-5.3,6.74-5.3,4.31,0,6.73,1.81,6.73,6Zm-1.85-6.06h-3.71c-4.2,0-6.81,1.1-6.81,4.35,0,2.39,1.7,4,4.35,4,5.41,0,6.17-3.6,6.17-7.69Z" transform="translate(-52.89 -98.82)"/><path class="cls-12" d="M427.69,197.85c.64,2.46,2.38,3.94,5.37,3.94,3.37,0,4.73-1.56,4.73-3.68s-.9-3.21-5.14-4.23c-4.88-1.18-6.1-2.65-6.1-5.15s2-5,6.25-5,6.32,2.61,6.62,5.3h-1.89c-.34-1.59-1.59-3.56-4.81-3.56s-4.24,1.62-4.24,3.14c0,1.74.91,2.61,4.66,3.52,5.33,1.28,6.66,3,6.66,5.86,0,3.45-2.8,5.57-6.77,5.57-4.32,0-6.74-2.27-7.27-5.68Z" transform="translate(-52.89 -98.82)"/><path class="cls-12" d="M459.82,193.57c0,5.26-2.91,10-8.55,10-5.11,0-8.29-4.2-8.29-9.92,0-5.41,3-9.91,8.48-9.91C456.49,183.7,459.82,187.63,459.82,193.57Zm-14.83,0c0,4.5,2.42,8.14,6.43,8.14s6.39-3.37,6.39-8.14c0-4.46-2.27-8.13-6.47-8.13S445,189.07,445,193.61Z" transform="translate(-52.89 -98.82)"/><path class="cls-12" d="M464.89,197.85c.65,2.46,2.39,3.94,5.38,3.94,3.36,0,4.73-1.56,4.73-3.68s-.91-3.21-5.15-4.23c-4.88-1.18-6.09-2.65-6.09-5.15s2-5,6.24-5,6.32,2.61,6.62,5.3h-1.89c-.34-1.59-1.59-3.56-4.81-3.56s-4.23,1.62-4.23,3.14c0,1.74.9,2.61,4.65,3.52,5.34,1.28,6.66,3,6.66,5.86,0,3.45-2.8,5.57-6.77,5.57-4.32,0-6.74-2.27-7.27-5.68Z" transform="translate(-52.89 -98.82)"/><path class="cls-12" d="M515.07,190.89c0-5.19,0-10.14.15-12.79h-.11c-1.06,3.55-6.43,16.61-9.8,25h-2c-2.53-6.47-8.09-21-9.3-25h-.08c.19,3,.26,9.19.26,13.74v11.27h-2V176.58h3.07c3.63,9.09,8.21,21,9.19,24h.08c.6-1.93,5.9-15.14,9.61-24h3v26.49h-2Z" transform="translate(-52.89 -98.82)"/><path class="cls-12" d="M524.2,193.84c0,4.88,2.49,7.91,6.13,7.91a5.34,5.34,0,0,0,5.45-3.56h1.93a7.26,7.26,0,0,1-7.46,5.34c-5.75,0-8-5-8-9.77,0-5.41,2.68-10.06,8.21-10.06,5.83,0,7.68,5,7.68,8.59,0,.53,0,1.06,0,1.55Zm12-1.67c0-3.74-2.08-6.69-5.79-6.69-3.89,0-5.67,2.72-6.09,6.69Z" transform="translate(-52.89 -98.82)"/><path class="cls-12" d="M542.93,203.07V175.18h1.89v27.89Z" transform="translate(-52.89 -98.82)"/><path class="cls-12" d="M551.45,193.84c0,4.88,2.49,7.91,6.13,7.91a5.34,5.34,0,0,0,5.45-3.56H565a7.26,7.26,0,0,1-7.46,5.34c-5.75,0-8-5-8-9.77,0-5.41,2.68-10.06,8.21-10.06,5.83,0,7.68,5,7.68,8.59,0,.53,0,1.06,0,1.55Zm12-1.67c0-3.74-2.08-6.69-5.79-6.69-3.89,0-5.67,2.72-6.09,6.69Z" transform="translate(-52.89 -98.82)"/><path class="cls-12" d="M567.49,184.15H571v-5.9h1.89v5.9h4.51v1.78H572.9v12.3c0,2.12.46,3.33,2.28,3.33a7.08,7.08,0,0,0,2-.23V203a6.73,6.73,0,0,1-2.34.34c-2.42,0-3.79-1.21-3.79-4.24V185.93h-3.52Z" transform="translate(-52.89 -98.82)"/><path class="cls-12" d="M581.16,203.07V175.18h1.89v27.89Z" transform="translate(-52.89 -98.82)"/><path class="cls-12" d="M589.25,175.18h1.9v3.67h-1.9Zm0,9h1.9v18.92h-1.9Z" transform="translate(-52.89 -98.82)"/><path class="cls-12" d="M612,175.18v22.44c0,1.82,0,3.56,0,5.45h-1.82c-.07-.45-.11-2.23-.11-3.18-1,2.31-3.07,3.64-6.36,3.64-4.92,0-7.87-4-7.87-9.69,0-5.83,3.22-10.14,8.36-10.14,3.79,0,5.3,1.62,5.87,2.84V175.18Zm-14.11,18.58c0,5.19,2.68,8,5.94,8,5,0,6.35-3.45,6.35-8.59,0-4.88-1.17-7.68-6-7.68C600.38,185.48,597.85,188.47,597.85,193.76Z" transform="translate(-52.89 -98.82)"/><path class="cls-12" d="M618.17,175.18h1.89v3.67h-1.89Zm0,9h1.89v18.92h-1.89Z" transform="translate(-52.89 -98.82)"/><path class="cls-12" d="M626.08,197.85c.64,2.46,2.38,3.94,5.37,3.94,3.37,0,4.73-1.56,4.73-3.68s-.91-3.21-5.14-4.23c-4.89-1.18-6.1-2.65-6.1-5.15s2-5,6.25-5,6.32,2.61,6.62,5.3h-1.89c-.34-1.59-1.59-3.56-4.81-3.56s-4.24,1.62-4.24,3.14c0,1.74.91,2.61,4.66,3.52,5.33,1.28,6.66,3,6.66,5.86,0,3.45-2.8,5.57-6.78,5.57-4.31,0-6.73-2.27-7.26-5.68Z" transform="translate(-52.89 -98.82)"/><rect class="cls-10" x="183.32" y="205.31" width="105.08" height="12.5" rx="2.18"/><rect class="cls-10" x="183.32" y="225.11" width="89.8" height="12.5" rx="2.18"/><rect class="cls-10" x="183.32" y="244.91" width="100.91" height="12.5" rx="2.18"/><rect class="cls-10" x="183.32" y="264.71" width="105.08" height="12.5" rx="2.18"/><rect class="cls-13" x="467.01" y="199.02" width="130.37" height="83.34" rx="5.22"/><rect class="cls-10" x="478.25" y="232.75" width="8.08" height="38.43" rx="1.57"/><rect class="cls-10" x="515.32" y="213.54" width="8.08" height="57.64" rx="1.57"/><rect class="cls-10" x="527.27" y="232.75" width="8.08" height="38.43" rx="1.57"/><rect class="cls-10" x="503" y="221.06" width="8.08" height="50.12" rx="1.57"/><rect class="cls-10" x="490.67" y="238.32" width="8.08" height="32.86" rx="1.57"/><rect class="cls-10" x="538.71" y="238.32" width="8.08" height="32.86" rx="1.57"/><path class="cls-14" d="M526.22,306.21v66.4a1.82,1.82,0,0,0,1.82,1.82h81.71" transform="translate(-52.89 -98.82)"/><path class="cls-15" d="M641.94,317.56a.26.26,0,0,1,.31.19,13,13,0,0,1,.41,3.26A13.35,13.35,0,0,1,631,334.26a14.74,14.74,0,0,1-1.64.1,13.55,13.55,0,0,1-3.2-.39,13.34,13.34,0,0,1,6.15-26,.26.26,0,0,1,.19.32l-3,11.89a.25.25,0,0,0,.31.31Z" transform="translate(-52.89 -98.82)"/><path class="cls-10" d="M634.57,308.76,632.49,317a.35.35,0,0,0,.42.43l8.31-1.94a.34.34,0,0,0,.23-.51c-.69-1.22-3-4.9-6.38-6.49A.36.36,0,0,0,634.57,308.76Z" transform="translate(-52.89 -98.82)"/><rect class="cls-10" x="563.15" y="253.92" width="25.99" height="3.18" rx="0.59"/><rect class="cls-10" x="563.15" y="272.43" width="25.99" height="3.18" rx="0.59"/><rect class="cls-10" x="563.15" y="267.77" width="22.88" height="3.18" rx="0.59"/><rect class="cls-10" x="563.15" y="263.15" width="25.39" height="3.18" rx="0.59"/><rect class="cls-10" x="563.15" y="258.53" width="24.74" height="3.18" rx="0.59"/><rect class="cls-16" x="563.15" y="241.5" width="25.99" height="9.03" rx="0.89"/><rect class="cls-17" x="183.32" y="166.66" width="106.47" height="29.85" rx="3.09"/><rect class="cls-17" x="465.53" y="166.66" width="133.11" height="19.37" rx="2.35"/><path class="cls-15" d="M452.45,344.17" transform="translate(-52.89 -98.82)"/><path class="cls-18" d="M360.74,384.89S392.47,392,411.92,376s12.74-32.3,2.78-37.4c-6.11-3.12-14.27-1.63-16.9,7.35-4.23,14.42,12.27,23.39,28.94,25.94s27.1-7.18,27.1-25.07" transform="translate(-52.89 -98.82)"/><path class="cls-10" d="M453,330.55l-7.54,15.08a.66.66,0,0,0,.59,1h15.61a.66.66,0,0,0,.59-1l-8.07-15.08A.67.67,0,0,0,453,330.55Z" transform="translate(-52.89 -98.82)"/><line class="cls-19" x1="395.59" y1="201.18" x2="414.12" y2="201.18"/><path class="cls-19" d="M465.33,294.32v11.35a.51.51,0,0,0,.74.47l11.36-5.68a.51.51,0,0,0,0-.92l-11.36-5.68A.51.51,0,0,0,465.33,294.32Z" transform="translate(-52.89 -98.82)"/><rect class="cls-20" x="312.61" y="166.66" width="135.24" height="50.65" rx="5.65"/><path class="cls-21" d="M396.69,288.28l-5.11-13.77h1.14l2.67,7.2c.77,2.08,1.64,4.39,1.93,5.55h0c.3-1,1.24-3.45,2-5.47l2.77-7.28h1.12L398,288.28Z" transform="translate(-52.89 -98.82)"/><path class="cls-21" d="M406.67,274.51v13.77H405.6V274.51Z" transform="translate(-52.89 -98.82)"/><path class="cls-21" d="M418.8,281.51h-7v5.78h7.69l-.16,1h-8.59V274.51h8.44v1h-7.38v5h7Z" transform="translate(-52.89 -98.82)"/><path class="cls-21" d="M424.72,288.28l-3.81-13.77H422c.92,3.3,3,10.92,3.32,12.53h0c.26-1.28,2.52-8.89,3.48-12.53H430c.91,3.36,3.11,11.45,3.33,12.51h0c.43-1.95,2.73-9.23,3.68-12.51h1.08l-4.21,13.77h-1.22c-.91-3.25-3.05-11.21-3.29-12.39h0c-.35,1.79-2.47,9-3.46,12.39Z" transform="translate(-52.89 -98.82)"/><path class="cls-21" d="M457.55,281.94c0-2.69,0-5.27.08-6.64h-.06c-.55,1.85-3.34,8.63-5.09,13h-1.05c-1.31-3.36-4.2-10.92-4.83-13h0c.1,1.57.13,4.78.13,7.14v5.86h-1.06V274.51h1.6c1.88,4.72,4.26,10.9,4.77,12.45h0c.32-1,3.07-7.87,5-12.45h1.57v13.77h-1.06Z" transform="translate(-52.89 -98.82)"/><path class="cls-21" d="M465.66,288.28v-5.17a.68.68,0,0,0-.08-.32l-4.92-8.28h1.24c1.38,2.34,3.78,6.41,4.37,7.43.59-1,3-5.05,4.48-7.43h1.18l-5.13,8.36a.6.6,0,0,0-.06.29v5.12Z" transform="translate(-52.89 -98.82)"/><path class="cls-21" d="M391.72,307l-4-14.34h1.14c1,3.44,3.14,11.37,3.47,13.05h0c.26-1.33,2.62-9.26,3.62-13.05h1.23c.95,3.5,3.24,11.93,3.47,13h0c.45-2,2.85-9.61,3.83-13h1.13L401.29,307H400c-.94-3.38-3.18-11.68-3.42-12.91h0c-.37,1.87-2.58,9.35-3.61,12.91Z" transform="translate(-52.89 -98.82)"/><path class="cls-21" d="M420.14,299.71c0,3.91-2.09,7.48-6.51,7.48-4,0-6.4-3.26-6.4-7.38s2.28-7.38,6.54-7.38C417.71,292.43,420.14,295.53,420.14,299.71Zm-11.72,0c0,3.3,1.83,6.41,5.27,6.41,3.71,0,5.27-3,5.27-6.43s-1.77-6.27-5.23-6.27C410,293.46,408.42,296.51,408.42,299.75Z" transform="translate(-52.89 -98.82)"/><path class="cls-21" d="M424.43,300.28V307H423.3V292.64h5.15c2.82,0,4.32,1.51,4.32,3.77a3.25,3.25,0,0,1-2.69,3.36c1.48.35,2.46,1.31,2.46,3.75v.55a9.4,9.4,0,0,0,.19,2.91H431.6a9.48,9.48,0,0,1-.2-3v-.37c0-2.35-.7-3.34-3.45-3.34Zm0-1h3.46c2.52,0,3.69-.95,3.69-2.83s-1.15-2.77-3.38-2.77h-3.77Z" transform="translate(-52.89 -98.82)"/><path class="cls-21" d="M436.27,292.64h1.11v7.46c1.15-1.11,5.25-5,7.81-7.46h1.47l-6.43,6.11L447,307h-1.37l-6.23-7.52-2.05,1.81V307h-1.11Z" transform="translate(-52.89 -98.82)"/><path class="cls-22" d="M771.52,496H707.67a4.24,4.24,0,0,1-4.23-3.89L695,390.32a4.24,4.24,0,0,1,4.23-4.6H780a4.24,4.24,0,0,1,4.23,4.6l-8.46,101.74A4.25,4.25,0,0,1,771.52,496Z" transform="translate(-52.89 -98.82)"/><path class="cls-23" d="M787,393.69H691.43a2,2,0,0,1-2-2.34l1.44-10a4.24,4.24,0,0,1,4.2-3.64h89.1a4.25,4.25,0,0,1,4.21,3.64l1.33,9.26A2.7,2.7,0,0,1,787,393.69Z" transform="translate(-52.89 -98.82)"/><path class="cls-24" d="M654.37,269.51H720a3.7,3.7,0,0,1,3.7,3.7v5.68a0,0,0,0,1,0,0h-73a0,0,0,0,1,0,0v-5.68A3.7,3.7,0,0,1,654.37,269.51Z"/><path class="cls-25" d="M765.43,368.33h7.46a3.69,3.69,0,0,1,3.69,3.69v5.69H754.24S762,374.43,765.43,368.33Z" transform="translate(-52.89 -98.82)"/><path class="cls-26" d="M772.52,377.71h12.1a3.69,3.69,0,0,1,3.66,3.17l1.5,10.47a2,2,0,0,1-2,2.34H751.41S766.53,388.46,772.52,377.71Z" transform="translate(-52.89 -98.82)"/><path class="cls-27" d="M769.52,393.69h14.41l-8.19,98.49a4.12,4.12,0,0,1-4.11,3.77H745.79S764.69,458.91,769.52,393.69Z" transform="translate(-52.89 -98.82)"/><path class="cls-28" d="M778.15,457.24H701a4.26,4.26,0,0,1-4.24-3.95L695.09,429a4.25,4.25,0,0,1,4.24-4.54h80.52a4.25,4.25,0,0,1,4.24,4.54l-1.7,24.31A4.26,4.26,0,0,1,778.15,457.24Z" transform="translate(-52.89 -98.82)"/><path class="cls-29" d="M762.72,424.44h18.42a3.05,3.05,0,0,1,3,3.26l-1.87,26.7a3,3,0,0,1-3,2.84H753.86S758.89,444.82,762.72,424.44Z" transform="translate(-52.89 -98.82)"/><path class="cls-30" d="M56.25,479.84H172.69a0,0,0,0,1,0,0v9.64a0,0,0,0,1,0,0H56.25a3.34,3.34,0,0,1-3.34-3.34v-3A3.34,3.34,0,0,1,56.25,479.84Z" transform="translate(-65.37 -95.74) rotate(-1.48)"/><rect class="cls-30" x="101.89" y="387.95" width="33.83" height="6.34" rx="2.2"/><path class="cls-10" d="M60.53,481.23l112.54-3-.47-17.94c-10.91-10.2-26.47-12.68-40.48-10.29a56.27,56.27,0,0,0-17.74,6.12C97.91,465.3,60.2,469,60.2,469Z" transform="translate(-52.89 -98.82)"/><path class="cls-30" d="M175.57,479.84H292a0,0,0,0,1,0,0v9.64a0,0,0,0,1,0,0H175.57a3.34,3.34,0,0,1-3.34-3.34v-3A3.34,3.34,0,0,1,175.57,479.84Z" transform="translate(398.76 876.34) rotate(-178.52)"/><path class="cls-10" d="M284.39,481.24l-113.09-3,.48-17.95c11-10.19,26.59-12.67,40.67-10.27a56.89,56.89,0,0,1,17.82,6.11c16.56,9.16,54.45,12.87,54.45,12.87Z" transform="translate(-52.89 -98.82)"/><path class="cls-31" d="M281.45,481.24l7.47.07c.05-.16,3.19.15,3.23,4.2,0,3.53-.35,5.12-3.48,5.43s-87.36-2.26-87.36-2.26S261,485.27,281.45,481.24Z" transform="translate(-52.89 -98.82)"/></svg>